<svg width="60" height="60" viewBox="0 0 60 60" fill="none" xmlns="http://www.w3.org/2000/svg">
<path d="M30 58.125C26.1089 58.1341 22.3127 56.924 19.1447 54.6647C18.9421 54.5206 18.805 54.3019 18.7636 54.0568C18.7222 53.8116 18.7799 53.56 18.9239 53.3574C19.068 53.1547 19.2867 53.0176 19.5319 52.9762C19.7771 52.9348 20.0287 52.9925 20.2313 53.1366C22.3822 54.6621 24.8606 55.6624 27.4678 56.0575C30.075 56.4526 32.7385 56.2315 35.2449 55.4118C37.7512 54.592 40.0307 53.1966 41.9005 51.3372C43.7704 49.4779 45.1787 47.2064 46.0125 44.7047C46.0513 44.5877 46.1128 44.4796 46.1934 44.3864C46.2739 44.2931 46.3721 44.2167 46.4822 44.1614C46.5923 44.1062 46.7123 44.0731 46.8352 44.0642C46.9581 44.0552 47.0815 44.0706 47.1985 44.1094C47.3154 44.1482 47.4236 44.2096 47.5168 44.2902C47.61 44.3708 47.6865 44.4689 47.7418 44.5791C47.797 44.6892 47.8301 44.8091 47.839 44.932C47.8479 45.0549 47.8326 45.1784 47.7938 45.2953C46.554 49.0335 44.1671 52.2855 40.9725 54.5889C37.778 56.8922 33.9384 58.1296 30 58.125Z" fill="white"/>
<path d="M12.21 41.25C11.9693 41.2503 11.7377 41.158 11.5631 40.9922C11.3886 40.8264 11.2845 40.5998 11.2725 40.3594C11.2584 40.0312 11.25 39.705 11.25 39.375C11.25 29.7347 26.0813 1.875 30 1.875C33.2953 1.875 44.1122 21.7069 47.4516 32.5359C47.5249 32.7736 47.5008 33.0307 47.3846 33.2507C47.2684 33.4706 47.0696 33.6354 46.8319 33.7088C46.5942 33.7821 46.3371 33.758 46.1171 33.6418C45.8972 33.5256 45.7324 33.3268 45.6591 33.0891C42.0637 21.4303 32.2828 5.00062 30 3.78281C27.0337 5.32594 13.125 30.2128 13.125 39.375C13.125 39.6741 13.1334 39.9703 13.1475 40.2656C13.1538 40.3887 13.1358 40.5118 13.0945 40.6279C13.0532 40.744 12.9894 40.8508 12.9068 40.9423C12.8241 41.0337 12.7243 41.1079 12.6129 41.1607C12.5016 41.2135 12.3809 41.2439 12.2578 41.25H12.21Z" fill="white"/>
<path d="M30 52.5C29.7514 52.5 29.5129 52.4012 29.3371 52.2254C29.1613 52.0496 29.0625 51.8111 29.0625 51.5625C29.0625 51.3139 29.1613 51.0754 29.3371 50.8996C29.5129 50.7238 29.7514 50.625 30 50.625C32.9827 50.6218 35.8423 49.4355 37.9514 47.3264C40.0605 45.2173 41.2468 42.3577 41.25 39.375C41.25 39.1264 41.3488 38.8879 41.5246 38.7121C41.7004 38.5363 41.9389 38.4375 42.1875 38.4375C42.4361 38.4375 42.6746 38.5363 42.8504 38.7121C43.0262 38.8879 43.125 39.1264 43.125 39.375C43.1213 42.8548 41.7373 46.1911 39.2767 48.6517C36.8161 51.1123 33.4798 52.4963 30 52.5Z" fill="white"/>
<path d="M55.3125 30.9375H4.6875C4.43886 30.9375 4.2004 30.8387 4.02459 30.6629C3.84877 30.4871 3.75 30.2486 3.75 30C3.75 29.7514 3.84877 29.5129 4.02459 29.3371C4.2004 29.1613 4.43886 29.0625 4.6875 29.0625H55.3125C55.5611 29.0625 55.7996 29.1613 55.9754 29.3371C56.1512 29.5129 56.25 29.7514 56.25 30C56.25 30.2486 56.1512 30.4871 55.9754 30.6629C55.7996 30.8387 55.5611 30.9375 55.3125 30.9375Z" fill="white"/>
<path d="M22.5 26.25C23.0178 26.25 23.4375 25.8303 23.4375 25.3125C23.4375 24.7947 23.0178 24.375 22.5 24.375C21.9822 24.375 21.5625 24.7947 21.5625 25.3125C21.5625 25.8303 21.9822 26.25 22.5 26.25Z" fill="white"/>
<path d="M31.875 13.125C32.3928 13.125 32.8125 12.7053 32.8125 12.1875C32.8125 11.6697 32.3928 11.25 31.875 11.25C31.3572 11.25 30.9375 11.6697 30.9375 12.1875C30.9375 12.7053 31.3572 13.125 31.875 13.125Z" fill="white"/>
<path d="M27.1875 18.75C27.7053 18.75 28.125 18.3303 28.125 17.8125C28.125 17.2947 27.7053 16.875 27.1875 16.875C26.6697 16.875 26.25 17.2947 26.25 17.8125C26.25 18.3303 26.6697 18.75 27.1875 18.75Z" fill="white"/>
<path d="M31.875 22.5C32.3928 22.5 32.8125 22.0803 32.8125 21.5625C32.8125 21.0447 32.3928 20.625 31.875 20.625C31.3572 20.625 30.9375 21.0447 30.9375 21.5625C30.9375 22.0803 31.3572 22.5 31.875 22.5Z" fill="white"/>
<path d="M38.4375 27.1875C38.9553 27.1875 39.375 26.7678 39.375 26.25C39.375 25.7322 38.9553 25.3125 38.4375 25.3125C37.9197 25.3125 37.5 25.7322 37.5 26.25C37.5 26.7678 37.9197 27.1875 38.4375 27.1875Z" fill="white"/>
<path d="M14.9999 56.25C14.7963 56.2499 14.5983 56.1835 14.4357 56.0609C14.2732 55.9383 14.155 55.7661 14.099 55.5703C13.6153 53.8894 11.7843 49.3828 9.14807 48.7266C8.94535 48.6758 8.76543 48.5587 8.63686 48.3939C8.5083 48.2292 8.43848 48.0262 8.43848 47.8172C8.43848 47.6082 8.5083 47.4052 8.63686 47.2405C8.76543 47.0757 8.94535 46.9586 9.14807 46.9078C11.7928 46.2459 13.6181 41.7403 14.0981 40.0641C14.1524 39.8664 14.27 39.692 14.4329 39.5675C14.5958 39.4431 14.795 39.3755 14.9999 39.375C15.2036 39.3751 15.4016 39.4415 15.5641 39.5641C15.7267 39.6867 15.8449 39.8589 15.9009 40.0547C16.3846 41.7356 18.2156 46.2422 20.8518 46.9031C21.0545 46.9539 21.2345 47.071 21.363 47.2358C21.4916 47.4005 21.5614 47.6035 21.5614 47.8125C21.5614 48.0215 21.4916 48.2245 21.363 48.3892C21.2345 48.554 21.0545 48.6711 20.8518 48.7219C18.2071 49.3838 16.3818 53.8894 15.9018 55.5703C15.8458 55.7662 15.7274 55.9385 15.5647 56.0612C15.402 56.1838 15.2037 56.2501 14.9999 56.25ZM11.4759 47.8125C13.0267 49.1168 14.2363 50.7795 14.9999 52.6566C15.7635 50.7795 16.9731 49.1168 18.524 47.8125C16.9731 46.5082 15.7635 44.8455 14.9999 42.9684C14.2363 44.8455 13.0267 46.5082 11.4759 47.8125Z" fill="white"/>
<path d="M49.6874 45C49.4791 44.9995 49.277 44.9296 49.1128 44.8014C48.9487 44.6733 48.8319 44.4941 48.7808 44.2922C48.0989 42.132 46.5886 40.3301 44.5808 39.2813C44.4248 39.2035 44.2936 39.0838 44.2019 38.9356C44.1101 38.7874 44.0615 38.6165 44.0615 38.4422C44.0615 38.2679 44.1101 38.097 44.2019 37.9488C44.2936 37.8006 44.4248 37.6809 44.5808 37.6031C46.5891 36.5528 48.0986 34.7487 48.778 32.5866C48.8285 32.3835 48.9454 32.2031 49.1102 32.0742C49.275 31.9452 49.4782 31.8751 49.6874 31.875C49.8957 31.8755 50.0978 31.9454 50.262 32.0736C50.4261 32.2017 50.5429 32.3809 50.594 32.5828C51.2759 34.743 52.7862 36.5449 54.794 37.5937C54.95 37.6715 55.0812 37.7912 55.1729 37.9394C55.2647 38.0876 55.3133 38.2585 55.3133 38.4328C55.3133 38.6071 55.2647 38.778 55.1729 38.9262C55.0812 39.0744 54.95 39.1941 54.794 39.2719C52.7857 40.3222 51.2762 42.1263 50.5968 44.2884C50.5463 44.4915 50.4294 44.6719 50.2646 44.8008C50.0998 44.9298 49.8966 44.9999 49.6874 45ZM46.8008 38.4375C47.9847 39.3052 48.9689 40.4164 49.6874 41.6963C50.4059 40.4164 51.3901 39.3052 52.574 38.4375C51.3901 37.5698 50.4059 36.4586 49.6874 35.1787C48.9689 36.4586 47.9847 37.5698 46.8008 38.4375Z" fill="white"/>
</svg>
