<svg width="60" height="60" viewBox="0 0 60 60" fill="none" xmlns="http://www.w3.org/2000/svg">
<path d="M29.9799 33.3057C22.6672 33.0673 20.9134 26.8062 20.538 24.7849C19.834 24.6217 19.2067 24.2233 18.7599 23.6554C18.2497 22.9524 18.0131 22.0877 18.0942 21.223C18.0363 20.757 18.0767 20.2841 18.2131 19.8348C18.3494 19.3855 18.5785 18.9698 18.8856 18.6146C19.0589 18.4369 19.2582 18.2865 19.4766 18.1686C18.1175 15.9743 17.4481 13.4227 17.555 10.8438C18.4015 4.79512 23.2761 4.20647 24.8029 4.17242C25.5055 3.35514 26.3839 2.70736 27.3723 2.27755C29.2238 1.53074 31.2702 1.41672 33.1931 1.95323C36.9731 2.93999 39.4939 4.83242 40.6899 7.57864C42.3926 11.4819 40.8991 15.9746 40.0412 17.9919C40.3684 18.0982 40.6699 18.2713 40.9266 18.5003C41.276 18.8549 41.5392 19.2851 41.6961 19.7576C41.853 20.23 41.8993 20.7322 41.8315 21.2254C41.9134 22.0901 41.677 22.955 41.1666 23.6578C40.7193 24.2256 40.0919 24.624 39.3877 24.7873C39.0123 26.8062 37.2626 33.0673 29.9799 33.3057ZM20.8315 19.4651C20.5439 19.4517 20.2626 19.5519 20.0483 19.744C19.8999 19.9519 19.7941 20.1871 19.7372 20.4361C19.6803 20.6851 19.6733 20.9429 19.7166 21.1946C19.72 21.2487 19.7181 21.303 19.711 21.3567C19.6669 21.8221 19.7871 22.2883 20.0507 22.6743C20.2151 22.858 20.4146 23.0069 20.6373 23.1125C20.8601 23.218 21.1017 23.278 21.348 23.2889C21.5334 23.3108 21.7055 23.396 21.8354 23.5302C21.9652 23.6643 22.0448 23.8391 22.0607 24.0251C22.0875 24.3267 22.8066 31.4497 29.9815 31.6849C37.1166 31.4497 37.8391 24.3267 37.8658 24.0235C37.8821 23.8378 37.9618 23.6633 38.0916 23.5295C38.2214 23.3957 38.3934 23.3108 38.5785 23.2889C38.8248 23.2781 39.0665 23.2182 39.2892 23.1126C39.512 23.0071 39.7115 22.858 39.8758 22.6743C40.1406 22.2863 40.2608 21.8178 40.2156 21.3503C40.2088 21.2981 40.2069 21.2455 40.2099 21.193C40.2537 20.933 40.2439 20.6668 40.181 20.4108C40.1181 20.1548 40.0035 19.9144 39.8442 19.7043C39.5909 19.5178 39.2758 19.4354 38.9637 19.474C38.8136 19.5007 38.6591 19.4845 38.5178 19.4273C38.3766 19.3701 38.2543 19.2743 38.165 19.1508C38.0757 19.0273 38.023 18.8812 38.013 18.7291C38.003 18.577 38.036 18.4252 38.1083 18.2911C38.1383 18.2343 41.1083 12.5976 39.1996 8.21674C38.2112 5.95296 36.0537 4.37269 32.7853 3.51972C31.2144 3.07517 29.5408 3.16066 28.0234 3.76296C27.1601 4.13489 26.4077 4.72367 25.8391 5.47215C25.7572 5.58349 25.648 5.67184 25.522 5.72865C25.396 5.78547 25.2575 5.80883 25.1199 5.79647C24.9099 5.77945 19.9453 5.45837 19.1669 11.0084C19.1669 11.0084 18.9423 15.4232 21.4996 18.0989C21.6111 18.2154 21.6852 18.3625 21.7127 18.5214C21.7401 18.6802 21.7196 18.8437 21.6537 18.9908C21.5929 19.1417 21.4859 19.2694 21.3479 19.3556C21.2099 19.4417 21.0481 19.4817 20.8858 19.47L20.8315 19.4651Z" fill="white"/>
<path d="M38.8224 19.4846C38.6131 19.4848 38.4119 19.404 38.2608 19.2593C38.1097 19.1145 38.0204 18.9169 38.0116 18.7078C38.0019 18.4978 37.7505 13.5997 34.0938 13.1286C32.4212 13.3411 30.7229 13.2086 29.1034 12.7395C27.484 12.2704 25.9779 11.4746 24.6778 10.4011C23.644 11.1786 21.2619 13.5422 21.72 18.583C21.726 18.7893 21.6532 18.9902 21.5162 19.1446C21.3793 19.2991 21.1886 19.3955 20.983 19.4142C20.7775 19.4329 20.5725 19.3725 20.4099 19.2453C20.2473 19.1182 20.1394 18.9338 20.1081 18.7297C19.4359 11.3343 24.1848 8.76729 24.3867 8.66189C24.537 8.58345 24.7081 8.5541 24.8759 8.57795C25.0438 8.6018 25.1999 8.67766 25.3224 8.79486C26.4781 9.84161 27.8462 10.6264 29.3332 11.0956C30.8202 11.5648 32.3909 11.7074 33.9381 11.5135C34.0123 11.5015 34.0878 11.4988 34.1627 11.5054C38.2848 11.9343 39.544 16.363 39.6332 18.6405C39.6416 18.8551 39.5645 19.0642 39.4188 19.2219C39.2732 19.3797 39.071 19.4733 38.8565 19.4822L38.8224 19.4846Z" fill="white"/>
<path d="M52.7751 58.3784H7.22536C7.01032 58.3784 6.80409 58.2929 6.65203 58.1409C6.49998 57.9888 6.41455 57.7826 6.41455 57.5676V48.5286C6.42035 45.6718 7.55884 42.9338 9.58038 40.9152C11.6019 38.8965 14.3415 37.762 17.1983 37.7603H18.7551C18.9701 37.7603 19.1764 37.8457 19.3284 37.9977C19.4805 38.1498 19.5659 38.356 19.5659 38.5711C19.5659 38.7861 19.4805 38.9923 19.3284 39.1444C19.1764 39.2965 18.9701 39.3819 18.7551 39.3819H17.1983C14.7714 39.3832 12.4441 40.3468 10.7266 42.0614C9.00905 43.776 8.04154 46.1017 8.03617 48.5286V56.7567H51.9643V48.5286C51.9615 46.1036 50.9969 43.7787 49.2822 42.064C47.5674 40.3492 45.2425 39.3847 42.8175 39.3819H41.1489C40.9338 39.3819 40.7276 39.2965 40.5755 39.1444C40.4235 38.9923 40.3381 38.7861 40.3381 38.5711C40.3381 38.356 40.4235 38.1498 40.5755 37.9977C40.7276 37.8457 40.9338 37.7603 41.1489 37.7603H42.8175C45.6722 37.7643 48.4088 38.9002 50.4274 40.9187C52.446 42.9373 53.5818 45.6739 53.5859 48.5286V57.5676C53.5859 57.7826 53.5005 57.9888 53.3484 58.1409C53.1964 58.2929 52.9901 58.3784 52.7751 58.3784Z" fill="white"/>
<path d="M32.7099 58.3784C32.5932 58.3784 32.4778 58.3532 32.3718 58.3046C32.2657 58.2559 32.1713 58.185 32.0952 58.0965C32.0191 58.0081 31.9629 57.9042 31.9306 57.7921C31.8983 57.68 31.8906 57.5622 31.908 57.4468L35.1893 35.7308C35.2067 35.6159 35.2486 35.5061 35.3121 35.4088C35.3756 35.3115 35.4593 35.229 35.5575 35.1669C35.6557 35.1048 35.7661 35.0645 35.8812 35.0487C35.9963 35.033 36.1135 35.0422 36.2247 35.0757L41.8874 36.7824C42.0002 36.8164 42.1042 36.8746 42.1922 36.9529C42.2802 37.0312 42.3501 37.1277 42.397 37.2357C42.444 37.3438 42.4668 37.4607 42.4639 37.5785C42.461 37.6962 42.4325 37.8119 42.3804 37.9176L40.1296 42.4338L41.435 43.8989C41.5507 44.0297 41.6211 44.1943 41.6357 44.3683C41.6503 44.5423 41.6083 44.7164 41.5161 44.8646L33.3991 57.9941C33.3264 58.1115 33.225 58.2085 33.1044 58.2757C32.9838 58.343 32.848 58.3783 32.7099 58.3784ZM36.6537 36.8984L34.1037 53.7738L39.8223 44.5305L38.555 43.1076C38.4472 42.9867 38.378 42.8362 38.3565 42.6757C38.335 42.5151 38.362 42.3518 38.4342 42.2068L40.5001 38.0603L36.6537 36.8984Z" fill="white"/>
<path d="M27.197 58.3784C27.0587 58.3785 26.9228 58.3432 26.802 58.2759C26.6812 58.2087 26.5797 58.1116 26.507 57.9941L18.3875 44.867C18.2953 44.7188 18.2533 44.5448 18.2679 44.3708C18.2825 44.1968 18.3529 44.0321 18.4686 43.9014L19.774 42.4362L17.5232 37.92C17.4711 37.8144 17.4426 37.6987 17.4397 37.5809C17.4368 37.4632 17.4596 37.3462 17.5066 37.2382C17.5535 37.1301 17.6234 37.0336 17.7114 36.9553C17.7994 36.8771 17.9034 36.8189 18.0162 36.7849L23.6789 35.0781C23.7901 35.0448 23.9072 35.0357 24.0222 35.0515C24.1372 35.0673 24.2475 35.1076 24.3456 35.1697C24.4437 35.2318 24.5273 35.3143 24.5907 35.4115C24.6542 35.5087 24.6961 35.6185 24.7135 35.7333L27.9964 57.4492C28.0134 57.5642 28.0054 57.6815 27.9731 57.7932C27.9407 57.9049 27.8848 58.0083 27.8089 58.0964C27.7331 58.1845 27.6392 58.2553 27.5336 58.304C27.428 58.3526 27.3132 58.378 27.197 58.3784ZM20.0845 44.5281L25.8032 53.7714L23.2532 36.8984L19.4067 38.0579L21.4718 42.2043C21.5441 42.3493 21.5713 42.5126 21.5499 42.6731C21.5285 42.8337 21.4595 42.9842 21.3518 43.1052L20.0845 44.5281Z" fill="white"/>
<path d="M30.0137 43.2608C28.2606 43.2595 26.5091 43.1534 24.7686 42.9429C24.6607 42.9331 24.5558 42.9016 24.4602 42.8505C24.3646 42.7994 24.2803 42.7297 24.2121 42.6454C24.144 42.5611 24.0934 42.464 24.0634 42.3599C24.0334 42.2557 24.0246 42.1466 24.0375 42.039C24.0504 41.9314 24.0848 41.8274 24.1385 41.7333C24.1923 41.6392 24.2644 41.5568 24.3505 41.4911C24.4367 41.4253 24.5351 41.3775 24.6401 41.3504C24.745 41.3233 24.8543 41.3176 24.9616 41.3335C28.2753 41.741 31.6265 41.741 34.9402 41.3335C35.1515 41.3106 35.3634 41.3717 35.5302 41.5035C35.6969 41.6353 35.8052 41.8273 35.8318 42.0382C35.8584 42.2491 35.8011 42.462 35.6722 42.6311C35.5434 42.8001 35.3533 42.9118 35.1429 42.9421C33.4415 43.1556 31.7284 43.2621 30.0137 43.2608Z" fill="white"/>
<path d="M35.9927 36.6625C35.8664 36.662 35.7421 36.6321 35.6295 36.575C35.5169 36.518 35.4191 36.4355 35.344 36.3341C34.1391 34.7052 33.921 31.4765 33.9008 31.1141C33.8884 30.8995 33.9617 30.6887 34.1046 30.5282C34.2475 30.3676 34.4483 30.2704 34.6629 30.2579C34.8769 30.2478 35.0864 30.3219 35.2464 30.4644C35.4064 30.6068 35.5043 30.8063 35.5191 31.02C35.5686 31.873 35.8686 34.3176 36.647 35.37C36.7359 35.4905 36.7898 35.6333 36.8026 35.7825C36.8154 35.9317 36.7866 36.0815 36.7194 36.2153C36.6522 36.3492 36.5493 36.4618 36.422 36.5407C36.2947 36.6197 36.1481 36.6618 35.9983 36.6625H35.9927Z" fill="white"/>
<path d="M23.9141 36.6624C23.7644 36.6617 23.6177 36.6196 23.4905 36.5407C23.3632 36.4618 23.2603 36.3491 23.1931 36.2153C23.1259 36.0815 23.0971 35.9316 23.1099 35.7824C23.1227 35.6332 23.1765 35.4904 23.2655 35.37C24.0455 34.3159 24.3447 31.8721 24.3941 31.02C24.4003 30.9135 24.4274 30.8093 24.4738 30.7133C24.5203 30.6173 24.5852 30.5313 24.6649 30.4604C24.7445 30.3895 24.8374 30.335 24.9381 30.2999C25.0388 30.2649 25.1455 30.25 25.252 30.2562C25.3584 30.2624 25.4627 30.2894 25.5587 30.3359C25.6547 30.3824 25.7406 30.4473 25.8115 30.5269C25.8824 30.6066 25.937 30.6994 25.972 30.8002C26.0071 30.9009 26.0219 31.0075 26.0158 31.114C25.9955 31.4765 25.7725 34.7051 24.5725 36.334C24.4964 36.4368 24.3971 36.5201 24.2827 36.5772C24.1683 36.6343 24.042 36.6635 23.9141 36.6624Z" fill="white"/>
<path d="M46.3417 47.0141C46.1307 47.0141 45.9279 46.932 45.7765 46.7849C45.6251 46.6379 45.537 46.4377 45.5309 46.2268C45.3793 40.9468 43.3717 39.2854 43.3522 39.2692C43.1847 39.1362 43.0761 38.9427 43.0497 38.7305C43.0233 38.5182 43.0813 38.304 43.2112 38.1341C43.3401 37.9655 43.5304 37.8545 43.7406 37.8254C43.9509 37.7962 44.1642 37.8512 44.3341 37.9784C44.4412 38.0595 46.9749 40.0273 47.1525 46.1797C47.1586 46.3945 47.0792 46.603 46.9317 46.7592C46.7843 46.9155 46.5808 47.0069 46.366 47.0132L46.3417 47.0141Z" fill="white"/>
<path d="M46.3461 51.8011C45.7121 51.8012 45.0924 51.6134 44.5652 51.2613C44.038 50.9092 43.6271 50.4087 43.3843 49.8231C43.1416 49.2374 43.078 48.5929 43.2016 47.9712C43.3252 47.3494 43.6304 46.7782 44.0786 46.3299C44.5268 45.8815 45.0979 45.5762 45.7197 45.4525C46.3414 45.3287 46.9859 45.3921 47.5716 45.6347C48.1573 45.8773 48.658 46.2881 49.0102 46.8152C49.3624 47.3423 49.5504 47.962 49.5504 48.5959C49.5496 49.4456 49.2117 50.2602 48.611 50.8611C48.0103 51.462 47.1957 51.8 46.3461 51.8011ZM46.3461 47.0124C46.0329 47.0123 45.7266 47.105 45.4661 47.2789C45.2056 47.4528 45.0025 47.7001 44.8825 47.9894C44.7626 48.2787 44.7311 48.5972 44.7921 48.9044C44.8531 49.2116 45.0038 49.4938 45.2253 49.7154C45.4467 49.9369 45.7289 50.0878 46.036 50.149C46.3432 50.2101 46.6617 50.1788 46.9511 50.059C47.2405 49.9392 47.4878 49.7362 47.6619 49.4758C47.8359 49.2154 47.9288 48.9092 47.9288 48.5959C47.9284 48.1762 47.7615 47.7738 47.4648 47.477C47.1681 47.1801 46.7658 47.0131 46.3461 47.0124Z" fill="white"/>
<path d="M13.0395 47.0141C12.8341 47.0146 12.6362 46.9371 12.4856 46.7973C12.3351 46.6575 12.2433 46.4657 12.2287 46.2608C11.7868 40.0379 15.2158 38.0489 15.3617 37.967C15.549 37.8614 15.7706 37.8344 15.9778 37.8921C16.185 37.9498 16.3607 38.0875 16.4664 38.2748C16.5721 38.4621 16.5991 38.6837 16.5414 38.8908C16.4837 39.098 16.346 39.2738 16.1587 39.3795C16.0355 39.4525 13.4831 41.0279 13.8455 46.1465C13.8607 46.361 13.79 46.5727 13.649 46.7351C13.5081 46.8975 13.3084 46.9973 13.0939 47.0125L13.0395 47.0141Z" fill="white"/>
<path d="M11.399 53.5062C11.2736 53.5068 11.1497 53.4782 11.0371 53.4228C10.9246 53.3673 10.8264 53.2865 10.7504 53.1867C10.3546 52.667 10.063 52.0756 9.89175 51.4451C9.51536 50.2171 9.63884 48.8902 10.2354 47.7527C10.8319 46.6152 11.8532 45.7591 13.0774 45.3705C13.6581 45.2072 14.2655 45.1613 14.8641 45.2353C15.4627 45.3094 16.0406 45.502 16.5639 45.8019C17.4811 46.3318 18.2147 47.129 18.6668 48.087C19.1188 49.045 19.2677 50.1181 19.0936 51.163C19.0584 51.3751 18.9403 51.5645 18.7653 51.6896C18.5904 51.8147 18.3729 51.8651 18.1608 51.8298C17.9487 51.7946 17.7592 51.6765 17.6342 51.5015C17.5091 51.3266 17.4586 51.1091 17.4939 50.897C17.6129 50.1811 17.5118 49.4459 17.2041 48.7886C16.8963 48.1313 16.3963 47.5829 15.7701 47.2159C15.4325 47.021 15.0595 46.8953 14.6727 46.8461C14.286 46.797 13.8933 46.8254 13.5177 46.9297C12.7052 47.2014 12.0327 47.7825 11.6459 48.5469C11.2592 49.3114 11.1894 50.1974 11.4517 51.013C11.5691 51.4446 11.769 51.8493 12.0404 52.2048C12.1317 52.325 12.1877 52.4683 12.202 52.6185C12.2163 52.7688 12.1884 52.92 12.1214 53.0553C12.0544 53.1905 11.951 53.3044 11.8228 53.384C11.6946 53.4637 11.5467 53.506 11.3958 53.5062H11.399Z" fill="white"/>
<path d="M18.3049 51.8424C18.2733 51.8424 18.2408 51.8424 18.2084 51.8376L17.2946 51.7297C17.1888 51.7172 17.0866 51.6839 16.9936 51.6318C16.9007 51.5797 16.819 51.5098 16.753 51.4261C16.6871 51.3424 16.6383 51.2466 16.6095 51.1441C16.5806 51.0415 16.5722 50.9343 16.5848 50.8285C16.5973 50.7227 16.6306 50.6204 16.6827 50.5275C16.7348 50.4346 16.8047 50.3528 16.8884 50.2869C17.0574 50.1538 17.2723 50.0933 17.486 50.1186L18.3998 50.2273C18.605 50.2517 18.7931 50.3535 18.9258 50.512C19.0584 50.6705 19.1255 50.8736 19.1134 51.0799C19.1013 51.2862 19.0109 51.4801 18.8606 51.622C18.7103 51.7639 18.5116 51.8422 18.3049 51.8424Z" fill="white"/>
<path d="M11.3993 53.5135C11.2089 53.5138 11.0245 53.447 10.8784 53.325C10.7323 53.203 10.6338 53.0334 10.6002 52.846C10.5665 52.6586 10.5999 52.4654 10.6944 52.3001C10.7889 52.1349 10.9386 52.0082 11.1172 51.9422L12.0901 51.583C12.19 51.5457 12.2961 51.5285 12.4026 51.5322C12.5091 51.536 12.6138 51.5607 12.7107 51.605C12.8077 51.6492 12.895 51.7121 12.9676 51.79C13.0402 51.868 13.0968 51.9595 13.1341 52.0593C13.1713 52.1592 13.1886 52.2653 13.1848 52.3718C13.181 52.4783 13.1563 52.583 13.1121 52.6799C13.0678 52.7769 13.005 52.8642 12.927 52.9368C12.849 53.0094 12.7575 53.066 12.6577 53.1033L11.6847 53.4633C11.5934 53.497 11.4967 53.514 11.3993 53.5135Z" fill="white"/>
</svg>
