<svg width="60" height="60" viewBox="0 0 60 60" fill="none" xmlns="http://www.w3.org/2000/svg">
<g clip-path="url(#clip0_201_691)">
<path d="M26.6342 43.043L22.1775 41.85C22.1469 41.8405 22.121 41.8196 22.1051 41.7917C22.0893 41.7638 22.0847 41.7309 22.0922 41.6996L23.3712 36.9326C23.5587 36.2257 23.4586 35.4733 23.0929 34.8399C22.7272 34.2066 22.1255 33.7438 21.4196 33.5529L19.9483 33.1576C19.6304 33.0725 19.2918 33.117 19.0067 33.2813C18.7216 33.4456 18.5134 33.7163 18.4276 34.0339L17.5839 37.1924C16.9907 39.4072 15.4819 40.0854 12.1286 39.5518L12.1928 39.3123C12.3092 38.8764 12.2482 38.4122 12.0231 38.0212C11.7979 37.6303 11.427 37.3445 10.9916 37.2264L6.3162 35.9742C5.88033 35.8578 5.41609 35.9188 5.02513 36.144C4.63417 36.3691 4.34835 36.74 4.23026 37.1754L0.058973 52.7519C-0.0577312 53.1875 0.00317441 53.6515 0.228317 54.0422C0.45346 54.4329 0.824436 54.7183 1.25979 54.8357L5.93557 56.0877C6.15194 56.1465 6.37785 56.1617 6.60014 56.1323C6.82243 56.1029 7.03664 56.0295 7.23026 55.9165C7.42331 55.8057 7.59238 55.6575 7.72762 55.4807C7.86286 55.3039 7.96157 55.102 8.018 54.8866L8.2055 54.1888C9.30706 54.6445 10.2283 55.1614 10.8518 55.6784C11.9443 56.602 13.2315 57.2667 14.6171 57.6226L20.5274 59.2073C20.9938 59.3314 21.4846 59.3313 21.951 59.207C22.4173 59.0827 22.8431 58.8385 23.1858 58.4986C23.5285 58.1588 23.7764 57.7352 23.9047 57.2699C24.033 56.8046 24.0373 56.3139 23.9172 55.8464C24.3095 55.7856 24.684 55.6409 25.0154 55.4223C25.3467 55.2036 25.627 54.9161 25.8372 54.5793C26.0474 54.2426 26.1826 53.8644 26.2334 53.4707C26.2843 53.077 26.2497 52.677 26.132 52.2978C26.547 52.194 26.9321 51.9952 27.2571 51.7171C27.582 51.4389 27.8379 51.0891 28.0045 50.6951C28.1712 50.3012 28.244 49.8739 28.2172 49.447C28.1904 49.0201 28.0649 48.6052 27.8503 48.2352C27.7813 48.1153 27.7034 48.0006 27.6175 47.8922C28.0238 47.5767 28.3339 47.154 28.5128 46.6717C28.6918 46.1894 28.7324 45.6667 28.6302 45.1625C28.5279 44.6584 28.2869 44.1928 27.9342 43.8183C27.5816 43.4438 27.1313 43.1753 26.6342 43.043ZM6.40761 54.4973C6.40083 54.5015 6.39323 54.5042 6.38533 54.5052C6.37743 54.5062 6.3694 54.5055 6.36179 54.5032L1.68729 53.2513C1.67248 53.2466 1.65988 53.2367 1.65186 53.2234C1.64383 53.2101 1.64093 53.1944 1.6437 53.1791L5.81557 37.6025C5.8199 37.5895 5.82813 37.5782 5.83914 37.57C5.85015 37.5619 5.8634 37.5573 5.8771 37.5569C5.88142 37.5569 5.88572 37.5575 5.88987 37.5587H5.89104L10.5654 38.8103C10.5807 38.8153 10.5936 38.8257 10.6016 38.8396C10.6097 38.8535 10.6123 38.8699 10.609 38.8856L6.43245 54.4657C6.43073 54.4724 6.42758 54.4787 6.42321 54.4841C6.41884 54.4895 6.41336 54.4939 6.40714 54.497L6.40761 54.4973ZM27.0055 46.0032C26.9278 46.291 26.7394 46.5364 26.4814 46.6857C26.2234 46.835 25.9168 46.8761 25.6286 46.8001L21.642 45.7301C21.4318 45.6737 21.2078 45.7031 21.0193 45.8118C20.8308 45.9206 20.6933 46.0997 20.6369 46.3099C20.5805 46.5201 20.6099 46.7441 20.7186 46.9326C20.8274 47.1211 21.0065 47.2586 21.2167 47.315L25.7487 48.5311C26.0357 48.6099 26.2801 48.7988 26.4287 49.0567C26.5774 49.3145 26.6184 49.6206 26.5428 49.9085C26.4653 50.1961 26.2769 50.4413 26.0189 50.5902C25.761 50.7391 25.4544 50.7797 25.1666 50.7029L24.2863 50.4663C24.2599 50.4585 24.2332 50.451 24.2064 50.4437L20.5923 49.4737C20.4883 49.4458 20.3797 49.4386 20.2729 49.4526C20.166 49.4666 20.063 49.5015 19.9697 49.5554C19.7812 49.6641 19.6435 49.8432 19.5871 50.0534C19.5307 50.2635 19.56 50.4875 19.6687 50.676C19.7774 50.8645 19.9565 51.0021 20.1667 51.0586L23.8316 52.043C24.1062 52.1322 24.3363 52.3231 24.4748 52.5765C24.6132 52.8299 24.6495 53.1267 24.5762 53.406C24.4987 53.6936 24.3103 53.9388 24.0523 54.0877C23.7943 54.2366 23.4877 54.2771 23.1999 54.2003L22.0552 53.8931C22.0228 53.883 21.9899 53.8735 21.957 53.8646L19.5913 53.2318L19.5851 53.2303C19.3749 53.1739 19.1509 53.2034 18.9624 53.3122C18.7738 53.4209 18.6363 53.6002 18.5799 53.8104C18.5235 54.0206 18.5529 54.2446 18.6617 54.4331C18.7705 54.6217 18.9497 54.7592 19.1599 54.8156L21.5938 55.4688C21.8705 55.5615 22.1003 55.7581 22.2347 56.0171C22.369 56.2761 22.3975 56.5772 22.3139 56.8567C22.2304 57.1363 22.0415 57.3725 21.787 57.5153C21.5326 57.6581 21.2326 57.6964 20.9505 57.6221L15.041 56.0375C13.8843 55.7406 12.8096 55.1858 11.8976 54.4147C10.9451 53.625 9.69272 53.0156 8.63323 52.5912L11.7017 41.1445C13.4911 41.4442 14.809 41.4368 15.9072 41.128C17.573 40.6593 18.6706 39.4781 19.1693 37.6154L19.9091 34.8455L20.9945 35.137C21.2803 35.2151 21.5237 35.4028 21.6719 35.6593C21.8201 35.9158 21.8612 36.2204 21.7862 36.5069L20.5067 41.2765C20.3867 41.7283 20.4508 42.2093 20.6849 42.6139C20.9189 43.0186 21.3039 43.314 21.7553 43.4353L26.2084 44.6272C26.4959 44.705 26.7409 44.8933 26.8901 45.151C27.0393 45.4086 27.0807 45.7149 27.0051 46.0029L27.0055 46.0032ZM8.50761 40.1846V40.2178C8.50761 40.4354 8.42118 40.644 8.26734 40.7979C8.1135 40.9517 7.90485 41.0381 7.68729 41.0381C7.46973 41.0381 7.26108 40.9517 7.10724 40.7979C6.95341 40.644 6.86698 40.4354 6.86698 40.2178V40.1846C6.86698 39.9671 6.95341 39.7584 7.10724 39.6046C7.26108 39.4508 7.46973 39.3643 7.68729 39.3643C7.90485 39.3643 8.1135 39.4508 8.26734 39.6046C8.42118 39.7584 8.50761 39.9671 8.50761 40.1846ZM59.9412 52.7545L55.7678 37.1727C55.6493 36.7381 55.3636 36.3681 54.9732 36.1435C54.5828 35.9189 54.1193 35.858 53.6841 35.974L49.0092 37.2265C48.5746 37.3454 48.2044 37.631 47.979 38.0212C47.7537 38.4115 47.6914 38.8749 47.8057 39.3108L47.8703 39.5516C44.5194 40.0849 43.0103 39.4076 42.4152 37.1925L41.5715 34.0324C41.4855 33.715 41.2771 33.4446 40.9921 33.2805C40.707 33.1165 40.3685 33.0722 40.0508 33.1574L38.5845 33.5522C37.8774 33.742 37.2744 34.2044 36.9077 34.838C36.541 35.4717 36.4405 36.2249 36.6283 36.9326L37.9064 41.6969C37.9107 41.7131 37.9117 41.73 37.9093 41.7465C37.907 41.7631 37.9014 41.779 37.8928 41.7934C37.8851 41.8073 37.8747 41.8195 37.8621 41.8293C37.8496 41.839 37.8352 41.8462 37.8198 41.8502L33.3631 43.043C32.8662 43.1757 32.4163 43.4445 32.064 43.8192C31.7117 44.1938 31.471 44.6594 31.369 45.1635C31.2671 45.6676 31.3079 46.1901 31.487 46.6723C31.666 47.1544 31.9761 47.5769 32.3823 47.8923C32.2965 48.0007 32.2187 48.1153 32.1496 48.2351C31.9351 48.6051 31.8095 49.02 31.7827 49.4469C31.756 49.8738 31.8288 50.301 31.9955 50.695C32.1621 51.0889 32.418 51.4387 32.743 51.7169C33.068 51.995 33.4532 52.1937 33.8682 52.2975C33.7125 52.7956 33.702 53.3278 33.8379 53.8317C33.9781 54.3481 34.2646 54.8129 34.6629 55.1702C35.0612 55.5274 35.5543 55.7619 36.0828 55.8453C35.9616 56.313 35.9651 56.8043 36.0931 57.2702C36.2211 57.736 36.4689 58.1602 36.812 58.5004C37.1551 58.8405 37.5813 59.0848 38.0483 59.2088C38.5152 59.3327 39.0065 59.3321 39.4731 59.207L45.3825 57.6225C46.7684 57.2663 48.0558 56.6013 49.1483 55.6772C49.7717 55.1603 50.6933 54.6437 51.7941 54.1889L51.9799 54.8819C52.0759 55.2437 52.2886 55.5637 52.585 55.7923C52.8814 56.021 53.2449 56.1454 53.6192 56.1464C53.7687 56.1464 53.9176 56.1267 54.062 56.0878L58.7404 54.8351C59.1752 54.7179 59.5458 54.4331 59.7709 54.043C59.996 53.653 60.0572 53.1896 59.9412 52.7545ZM48.1016 54.4142C47.1894 55.1855 46.1146 55.7404 44.9576 56.0375L39.0485 57.622C38.7607 57.6971 38.4549 57.6555 38.1975 57.5063C37.9402 57.357 37.7522 57.1123 37.6744 56.8251C37.6004 56.5467 37.6361 56.2505 37.774 55.9976C37.912 55.7447 38.1417 55.5543 38.4158 55.4658L40.8402 54.8157H40.8417C41.0519 54.7594 41.2312 54.622 41.34 54.4335C41.4488 54.2451 41.4783 54.0212 41.4221 53.811C41.3658 53.6008 41.2283 53.4216 41.0399 53.3127C40.8514 53.2039 40.6275 53.1744 40.4173 53.2307L38.0434 53.8657C38.0158 53.8731 37.9883 53.881 37.9614 53.8891L36.8012 54.2004C36.5865 54.2586 36.3593 54.2516 36.1485 54.1804C35.9377 54.1091 35.7529 53.9767 35.6175 53.8001C35.4822 53.6235 35.4024 53.4107 35.3883 53.1886C35.3742 52.9666 35.4265 52.7453 35.5385 52.5531C35.6765 52.3111 35.9001 52.1295 36.1654 52.0444L39.8365 51.0586C40.0467 51.0022 40.2258 50.8646 40.3345 50.6761C40.4433 50.4876 40.4726 50.2636 40.4162 50.0535C40.3598 49.8433 40.2222 49.6642 40.0337 49.5554C39.8452 49.4467 39.6213 49.4173 39.4111 49.4737L35.7947 50.4435C35.7659 50.4513 35.7372 50.4594 35.7087 50.4678L34.8347 50.7022C34.6921 50.7405 34.5434 50.7502 34.397 50.731C34.2506 50.7118 34.1095 50.6639 33.9816 50.5901C33.8537 50.5163 33.7416 50.418 33.6517 50.3009C33.5618 50.1838 33.4959 50.0502 33.4576 49.9076C33.4194 49.765 33.4096 49.6162 33.4289 49.4699C33.4481 49.3235 33.496 49.1823 33.5698 49.0545C33.6436 48.9266 33.7418 48.8145 33.8589 48.7246C33.976 48.6347 34.1097 48.5687 34.2523 48.5305L38.7864 47.3147C38.9966 47.2583 39.1758 47.1208 39.2845 46.9323C39.3933 46.7438 39.4227 46.5199 39.3664 46.3097C39.31 46.0995 39.1724 45.9203 38.984 45.8116C38.7955 45.7028 38.5715 45.6734 38.3614 45.7297L34.3728 46.7991C34.0848 46.8763 33.7779 46.836 33.5197 46.687C33.2614 46.538 33.0729 46.2926 32.9956 46.0046C32.9184 45.7166 32.9587 45.4097 33.1077 45.1515C33.2566 44.8932 33.5021 44.7047 33.7901 44.6275L38.2425 43.4355C38.6945 43.3141 39.0799 43.0183 39.3141 42.6132C39.5483 42.208 39.6123 41.7264 39.492 41.2741L38.2132 36.5078C38.1381 36.2204 38.1795 35.915 38.3286 35.6582C38.4778 35.4013 38.7224 35.2139 39.0092 35.1367L40.0902 34.8457L40.8301 37.6172C41.3304 39.4789 42.4286 40.6602 44.0944 41.1285C45.1926 41.4371 46.5096 41.4449 48.2975 41.145L51.366 52.592C50.3064 53.0156 49.0545 53.6242 48.1016 54.4142ZM58.3499 53.2221C58.3463 53.229 58.3413 53.235 58.3352 53.2399C58.3292 53.2447 58.3222 53.2483 58.3148 53.2505L53.6365 54.5032C53.6291 54.5052 53.6213 54.5057 53.6136 54.5047C53.6059 54.5036 53.5986 54.5009 53.592 54.4969C53.5853 54.4933 53.5796 54.4883 53.5751 54.4822C53.5707 54.4761 53.5676 54.4691 53.5662 54.4617L53.1516 52.9148C53.1481 52.8996 53.1436 52.8844 53.1393 52.8691L49.3919 38.8901C49.388 38.8739 49.3903 38.8569 49.3982 38.8423C49.4062 38.8278 49.4193 38.8167 49.435 38.8112L54.1088 37.5586H54.1099C54.1141 37.5574 54.1184 37.5568 54.1227 37.5568C54.136 37.557 54.1489 37.5612 54.1598 37.5689C54.1707 37.5766 54.1789 37.5874 54.1835 37.5998L58.3564 53.1817C58.358 53.1885 58.3583 53.1956 58.3572 53.2025C58.3561 53.2095 58.3536 53.2161 58.3499 53.2221ZM53.1326 40.1846V40.2178C53.1326 40.3255 53.1114 40.4322 53.0702 40.5317C53.0289 40.6313 52.9685 40.7217 52.8923 40.7979C52.8162 40.874 52.7257 40.9344 52.6262 40.9757C52.5267 41.0169 52.42 41.0381 52.3123 41.0381C52.2046 41.0381 52.0979 41.0169 51.9984 40.9757C51.8988 40.9344 51.8084 40.874 51.7322 40.7979C51.6561 40.7217 51.5956 40.6313 51.5544 40.5317C51.5132 40.4322 51.492 40.3255 51.492 40.2178V40.1846C51.492 40.0769 51.5132 39.9702 51.5544 39.8707C51.5956 39.7712 51.6561 39.6808 51.7322 39.6046C51.8084 39.5284 51.8988 39.468 51.9984 39.4268C52.0979 39.3855 52.2046 39.3643 52.3123 39.3643C52.42 39.3643 52.5267 39.3855 52.6262 39.4268C52.7257 39.468 52.8162 39.5284 52.8923 39.6046C52.9685 39.6808 53.0289 39.7712 53.0702 39.8707C53.1114 39.9702 53.1326 40.0769 53.1326 40.1846ZM37.1178 32.2453C37.2936 32.1173 37.4243 31.9369 37.4911 31.7299C37.5578 31.5229 37.5572 31.3001 37.4892 31.0935L35.2174 24.1523L41.1415 19.866C41.3166 19.7369 41.4464 19.5559 41.5125 19.3487C41.5786 19.1415 41.5776 18.9187 41.5095 18.7121C41.4415 18.5055 41.31 18.3257 41.1337 18.1983C40.9574 18.0709 40.7454 18.0025 40.5279 18.0027L33.224 18.018L30.9805 11.07C30.9153 10.8632 30.786 10.6824 30.6114 10.5538C30.4368 10.4251 30.2258 10.3553 30.0089 10.3543H30.0006C29.7826 10.3539 29.5702 10.4226 29.3938 10.5507C29.2175 10.6788 29.0864 10.8596 29.0194 11.0671L26.7751 18.018L19.4694 18.0027C19.2514 18.0027 19.039 18.0718 18.8627 18.2C18.6864 18.3283 18.5553 18.5091 18.4882 18.7165C18.4211 18.924 18.4215 19.1473 18.4893 19.3545C18.557 19.5618 18.6887 19.7422 18.8655 19.8698L24.7819 24.1523L22.5132 31.0936C22.4448 31.3007 22.4439 31.5242 22.5107 31.7318C22.5776 31.9395 22.7086 32.1205 22.8849 32.2489C23.0613 32.3773 23.2738 32.4464 23.4919 32.4461C23.7101 32.4459 23.9225 32.3765 24.0986 32.2478L29.9998 27.9429L35.9049 32.2503C36.0816 32.3779 36.2942 32.4462 36.5121 32.4453C36.7301 32.4444 36.9421 32.3744 37.1178 32.2453ZM30.4831 26.2645C30.3427 26.1621 30.1734 26.1069 29.9996 26.1069C29.8258 26.1069 29.6564 26.1621 29.516 26.2645L24.66 29.8066L26.5275 24.0929C26.5815 23.9278 26.5817 23.7498 26.528 23.5845C26.4743 23.4193 26.3696 23.2753 26.2288 23.1735L21.357 19.6461L27.3703 19.6588H27.372C27.5455 19.6588 27.7146 19.6038 27.8549 19.5017C27.9952 19.3996 28.0995 19.2556 28.1528 19.0904L29.9998 13.3711L31.8465 19.0908C31.8999 19.2562 32.0045 19.4004 32.1451 19.5025C32.2857 19.6047 32.4552 19.6595 32.629 19.6591L38.645 19.6465L33.7707 23.1731C33.6298 23.275 33.5249 23.419 33.4712 23.5844C33.4175 23.7497 33.4177 23.9278 33.4718 24.093L35.3426 29.8089L30.4831 26.2645ZM40.9196 22.8417C40.8559 23.037 40.8559 23.2476 40.9197 23.4429C40.9835 23.6382 41.1078 23.8081 41.2745 23.9282L45.4368 26.9392L43.8419 31.8221C43.7777 32.0176 43.7772 32.2283 43.8403 32.4241C43.9035 32.6199 44.0271 32.7906 44.1934 32.9117C44.3597 33.0328 44.5601 33.0981 44.7658 33.0981C44.9715 33.0982 45.1719 33.033 45.3382 32.912L49.4881 29.8828L53.6416 32.9137C53.8083 33.0341 54.0089 33.0987 54.2146 33.0981C54.4203 33.0975 54.6205 33.0318 54.7865 32.9105C54.9526 32.7891 55.076 32.6183 55.1391 32.4226C55.2021 32.2268 55.2016 32.0161 55.1376 31.8206L53.5404 26.9391L57.7016 23.9287C57.8686 23.8083 57.9931 23.638 58.0571 23.4423C58.1212 23.2466 58.1214 23.0357 58.0579 22.8398C57.9944 22.644 57.8704 22.4733 57.7037 22.3525C57.5371 22.2316 57.3363 22.1667 57.1305 22.1672L51.9923 22.1761L50.4155 17.2881L50.4129 17.2805C50.3476 17.0849 50.2219 16.9151 50.0539 16.7955C49.886 16.6759 49.6844 16.6127 49.4782 16.615C49.2744 16.6161 49.0762 16.6818 48.9121 16.8027C48.748 16.9235 48.6264 17.0933 48.5649 17.2876L46.9851 22.1761L41.845 22.1672C41.6391 22.1669 41.4385 22.2321 41.2722 22.3534C41.1058 22.4746 40.9823 22.6456 40.9196 22.8417ZM47.5804 23.8182H47.5818C47.7554 23.8184 47.9246 23.7634 48.065 23.6613C48.2053 23.5592 48.3097 23.4152 48.3631 23.25L49.4901 19.7626L50.6151 23.2495C50.6683 23.4148 50.7726 23.5588 50.9129 23.661C51.0533 23.7632 51.2224 23.8183 51.396 23.8182H51.3974L55.0644 23.8118L52.0943 25.9604C51.9534 26.0623 51.8486 26.2063 51.7948 26.3716C51.7411 26.537 51.7413 26.7151 51.7954 26.8803L52.9364 30.3671L49.9721 28.2046C49.8316 28.1021 49.6623 28.0468 49.4884 28.0468C49.3146 28.0468 49.1452 28.1021 49.0048 28.2046L46.0441 30.3653L47.1825 26.8799C47.2365 26.7147 47.2366 26.5366 47.1828 26.3714C47.129 26.2061 47.0242 26.0622 46.8833 25.9604L43.9132 23.8118L47.5804 23.8182ZM2.29667 23.9282L6.4587 26.9391L4.86108 31.8209C4.85921 31.8268 4.85733 31.8326 4.85557 31.8388C4.79593 32.0342 4.79921 32.2434 4.86494 32.4368C4.93068 32.6303 5.05554 32.7981 5.22188 32.9168C5.38823 33.0354 5.58764 33.0987 5.79194 33.0978C5.99623 33.0969 6.19508 33.0318 6.36038 32.9118L10.5106 29.8828L14.6641 32.9137C14.8295 33.0329 15.0283 33.0972 15.2322 33.0975C15.4361 33.0977 15.635 33.0341 15.8008 32.9154C15.9667 32.7967 16.0911 32.6289 16.1566 32.4358C16.2221 32.2427 16.2254 32.0339 16.1659 31.8388C16.1641 31.8327 16.1621 31.8271 16.1602 31.8206L14.5626 26.9391L18.7238 23.9287C18.8908 23.8083 19.0153 23.6379 19.0793 23.4422C19.1433 23.2465 19.1436 23.0355 19.08 22.8396C19.0164 22.6437 18.8924 22.4731 18.7256 22.3522C18.5589 22.2314 18.3581 22.1666 18.1521 22.1672L13.0139 22.1761L11.4373 17.2881L11.4348 17.2807C11.3698 17.0861 11.2451 16.917 11.0784 16.7974C10.9117 16.6778 10.7115 16.6139 10.5064 16.6147C10.3012 16.6155 10.1016 16.6811 9.93582 16.802C9.77008 16.9229 9.6467 17.093 9.58327 17.2881L8.00686 22.1761L2.86725 22.1672C2.66157 22.167 2.46112 22.232 2.29472 22.3529C2.12831 22.4738 2.00452 22.6444 1.94112 22.84C1.87772 23.0357 1.87798 23.2464 1.94186 23.4419C2.00575 23.6374 2.12997 23.8077 2.29667 23.9282ZM8.60253 23.8182H8.60393C8.77751 23.8182 8.94662 23.7632 9.08693 23.661C9.22724 23.5588 9.33152 23.4147 9.38475 23.2495L10.5106 19.7594L11.6365 23.25C11.6898 23.4152 11.794 23.5593 11.9343 23.6615C12.0746 23.7637 12.2438 23.8187 12.4173 23.8187H12.4187L16.0859 23.8123L13.1157 25.9609C12.9748 26.0628 12.8699 26.2068 12.8162 26.3721C12.7625 26.5375 12.7627 26.7156 12.8168 26.8808L13.9579 30.3676L10.9943 28.2046C10.8539 28.102 10.6845 28.0468 10.5106 28.0468C10.3368 28.0468 10.1674 28.102 10.0269 28.2046L7.06339 30.3671L8.20444 26.8803C8.25853 26.7151 8.25872 26.537 8.20498 26.3716C8.15125 26.2063 8.04638 26.0623 7.9055 25.9604L4.93538 23.8118L8.60253 23.8182ZM39.9502 12.4448L45.6204 9.16956C45.7137 9.1157 45.8167 9.08074 45.9235 9.06668C46.0303 9.05262 46.1389 9.05974 46.2429 9.08762C46.347 9.11551 46.4445 9.16362 46.53 9.2292C46.6154 9.29478 46.6872 9.37656 46.741 9.46986C46.7949 9.56315 46.8298 9.66615 46.8439 9.77295C46.858 9.87976 46.8508 9.98829 46.823 10.0924C46.7951 10.1964 46.747 10.294 46.6814 10.3794C46.6158 10.4649 46.534 10.5366 46.4407 10.5905L40.7705 13.8657C40.6772 13.9196 40.5742 13.9546 40.4674 13.9686C40.3606 13.9827 40.2521 13.9756 40.148 13.9477C40.0439 13.9198 39.9464 13.8717 39.8609 13.8061C39.7755 13.7405 39.7038 13.6587 39.6499 13.5654C39.596 13.4721 39.5611 13.3692 39.547 13.2623C39.533 13.1555 39.5401 13.047 39.568 12.9429C39.5958 12.8389 39.6439 12.7413 39.7095 12.6559C39.7751 12.5704 39.8569 12.4987 39.9502 12.4448ZM20.3599 4.73613C20.2512 4.54767 20.2217 4.32372 20.278 4.11355C20.3344 3.90337 20.4719 3.72418 20.6604 3.6154C20.8488 3.50662 21.0728 3.47716 21.2829 3.5335C21.4931 3.58984 21.6723 3.72736 21.7811 3.91581L25.0564 9.58933C25.1651 9.77777 25.1946 10.0017 25.1383 10.2119C25.0819 10.422 24.9444 10.6012 24.756 10.71C24.5676 10.8188 24.3436 10.8482 24.1335 10.7919C23.9233 10.7356 23.7441 10.5981 23.6353 10.4096L20.3599 4.73613ZM35.1517 8.81566L38.4236 3.14214C38.4774 3.0488 38.5492 2.96698 38.6347 2.90135C38.7201 2.83572 38.8177 2.78758 38.9218 2.75966C39.0259 2.73174 39.1345 2.7246 39.2413 2.73864C39.3482 2.75268 39.4512 2.78763 39.5445 2.8415C39.6379 2.89536 39.7197 2.96708 39.7853 3.05256C39.851 3.13805 39.8991 3.23562 39.927 3.33971C39.9549 3.4438 39.9621 3.55237 39.948 3.65922C39.934 3.76607 39.899 3.86911 39.8452 3.96245L36.5733 9.63597C36.4645 9.82448 36.2853 9.96207 36.0751 10.0184C35.8649 10.0748 35.6409 10.0454 35.4524 9.93661C35.2638 9.82783 35.1263 9.64862 35.0699 9.4384C35.0135 9.22818 35.0429 9.00417 35.1517 8.81566ZM14.0321 10.8116C14.0859 10.7183 14.1577 10.6365 14.2432 10.5709C14.3287 10.5053 14.4262 10.4572 14.5303 10.4293C14.6344 10.4014 14.743 10.3944 14.8498 10.4085C14.9567 10.4225 15.0597 10.4576 15.153 10.5115L20.8233 13.7869C20.9166 13.8407 20.9984 13.9124 21.064 13.9979C21.1295 14.0834 21.1777 14.1809 21.2055 14.285C21.2334 14.389 21.2405 14.4976 21.2265 14.6044C21.2124 14.7112 21.1775 14.8142 21.1236 14.9075C21.0697 15.0008 20.998 15.0825 20.9126 15.1481C20.8271 15.2137 20.7295 15.2618 20.6255 15.2897C20.5214 15.3176 20.4129 15.3247 20.3061 15.3106C20.1993 15.2966 20.0963 15.2616 20.003 15.2078L14.3318 11.9324C14.2385 11.8785 14.1568 11.8067 14.0912 11.7212C14.0257 11.6357 13.9776 11.5382 13.9498 11.4341C13.922 11.33 13.9149 11.2215 13.929 11.1147C13.9431 11.0078 13.9781 10.9049 14.0321 10.8116ZM29.1795 8.06964V1.51886C29.1795 1.3013 29.2659 1.09265 29.4197 0.938811C29.5736 0.784973 29.7822 0.698547 29.9998 0.698547C30.2174 0.698547 30.426 0.784973 30.5798 0.938811C30.7337 1.09265 30.8201 1.3013 30.8201 1.51886V8.06964C30.8201 8.2872 30.7337 8.49585 30.5798 8.64969C30.426 8.80353 30.2174 8.88995 29.9998 8.88995C29.7822 8.88995 29.5736 8.80353 29.4197 8.64969C29.2659 8.49585 29.1795 8.2872 29.1795 8.06964Z" fill="white"/>
</g>
<defs>
<clipPath id="clip0_201_691">
<rect width="60" height="60" fill="white"/>
</clipPath>
</defs>
</svg>
