<svg width="60" height="60" viewBox="0 0 60 60" fill="none" xmlns="http://www.w3.org/2000/svg">
<g clip-path="url(#clip0_201_1325)">
<path d="M4.15029 2.37338C3.03192 2.37338 2.12207 3.28335 2.12207 4.4016V57.9718C2.12207 59.0901 3.03204 60 4.15029 60H46.4429C47.5613 60 48.4711 59.09 48.4711 57.9718V34.9242L54.4279 28.9371L57.17 26.1839L57.1706 26.1833C58.1108 25.2363 58.1146 23.6912 57.1774 22.7392L55.3255 20.8649C54.8591 20.3954 54.2392 20.1368 53.5792 20.1368C52.923 20.1368 52.3068 20.3936 51.8447 20.8587L49.0296 23.6911L48.4705 24.2527V4.40232C48.4705 3.28395 47.5605 2.37411 46.4423 2.37411H29.7391L26.8701 0.131808C26.7613 0.0463924 26.627 0 26.4891 0H24.1039C23.9659 0 23.8317 0.0463924 23.7228 0.131083L20.8538 2.37338H4.15029ZM47.4152 34.232L47.4146 34.2326L35.2425 46.4666L32.3816 43.4158L31.7823 42.7768L49.477 24.9962L53.1087 28.5103L47.4152 34.232ZM34.0629 47.0171L30.0255 48.0526L31.2131 43.9775L32.0204 44.8379L34.0629 47.0171ZM14.6368 3.61124H21.0674C21.2054 3.61124 21.3396 3.56485 21.4485 3.48015L24.3167 1.23725H26.2757L29.1447 3.47955C29.2535 3.56497 29.3878 3.61063 29.5257 3.61063H35.9557V5.19293H14.6368V3.61124ZM35.6686 47.7935L47.2346 36.1688V57.9726H47.234C47.234 58.4094 46.8789 58.7637 46.4429 58.7637H4.15029C3.71355 58.7637 3.3592 58.4086 3.3592 57.9726V4.40232C3.3592 3.96619 3.71427 3.61124 4.15029 3.61124H13.3997V5.8121C13.3997 6.15352 13.6768 6.43066 14.0182 6.43066H36.5742C36.9156 6.43066 37.1928 6.15352 37.1928 5.8121V3.61124H46.4428C46.8789 3.61124 47.2338 3.96631 47.2338 4.40232V25.496L30.4839 42.3271C30.4557 42.3571 30.4226 42.3978 30.3918 42.45C30.3609 42.5024 30.3413 42.5514 30.3287 42.5906L28.5342 48.7485C28.4717 48.9619 28.5293 49.192 28.6833 49.3516C28.8014 49.4735 28.9623 49.5403 29.128 49.5403C29.1794 49.5403 29.2307 49.5342 29.282 49.5211L35.3836 47.9561C35.4253 47.943 35.4762 47.9231 35.5308 47.8924C35.589 47.8597 35.6347 47.824 35.6686 47.7935ZM56.2928 25.3116L53.9806 27.6331L50.3489 24.119L52.7223 21.7307C53.1819 21.2674 53.986 21.273 54.4456 21.7351L56.2957 23.6075C56.7593 24.0783 56.7581 24.8428 56.2928 25.3116Z" fill="white" stroke="white" stroke-width="0.5"/>
<path d="M25.123 18.7679H42.1466C42.488 18.7679 42.7651 18.4907 42.7651 18.1493C42.7651 17.8079 42.488 17.5308 42.1466 17.5308H25.123C24.7815 17.5308 24.5044 17.8079 24.5044 18.1493C24.5044 18.4907 24.7814 18.7679 25.123 18.7679Z" fill="white" stroke="white" stroke-width="0.5"/>
<path d="M8.44669 25.9327H42.1455C42.4869 25.9327 42.764 25.6556 42.764 25.3142C42.764 24.9728 42.4869 24.6956 42.1455 24.6956H8.44669C8.10527 24.6956 7.82812 24.9728 7.82812 25.3142C7.82812 25.6556 8.10527 25.9327 8.44669 25.9327Z" fill="white" stroke="white" stroke-width="0.5"/>
<path d="M8.44669 33.097H37.4598C37.8012 33.097 38.0784 32.8198 38.0784 32.4784C38.0784 32.137 37.8012 31.8599 37.4598 31.8599H8.44669C8.10527 31.8599 7.82812 32.137 7.82812 32.4784C7.82812 32.8198 8.10527 33.097 8.44669 33.097Z" fill="white" stroke="white" stroke-width="0.5"/>
<path d="M8.44669 40.2612H30.4076C30.749 40.2612 31.0261 39.9841 31.0261 39.6427C31.0261 39.3013 30.749 39.0241 30.4076 39.0241H8.44669C8.10527 39.0241 7.82812 39.3013 7.82812 39.6427C7.82812 39.9841 8.10527 40.2612 8.44669 40.2612Z" fill="white" stroke="white" stroke-width="0.5"/>
<path d="M8.44669 47.4254H24.1929C24.5343 47.4254 24.8115 47.1482 24.8115 46.8068C24.8115 46.4654 24.5343 46.1882 24.1929 46.1882H8.44669C8.10527 46.1882 7.82812 46.4654 7.82812 46.8068C7.82812 47.1482 8.10527 47.4254 8.44669 47.4254Z" fill="white" stroke="white" stroke-width="0.5"/>
<path d="M7.82812 53.971C7.82812 54.3125 8.10527 54.5896 8.44669 54.5896H42.1455C42.4869 54.5896 42.764 54.3125 42.764 53.971C42.764 53.6296 42.4869 53.3525 42.1455 53.3525H8.44669C8.10527 53.3525 7.82812 53.6296 7.82812 53.971Z" fill="white" stroke="white" stroke-width="0.5"/>
<path d="M25.123 11.6036H42.1466C42.488 11.6036 42.7651 11.3265 42.7651 10.9851C42.7651 10.6437 42.488 10.3665 42.1466 10.3665H25.123C24.7815 10.3665 24.5044 10.6437 24.5044 10.9851C24.5044 11.3265 24.7814 11.6036 25.123 11.6036Z" fill="white" stroke="white" stroke-width="0.5"/>
<path d="M9.50724 16.7736H12.6582V19.9178C12.6582 20.2592 12.9353 20.5364 13.2767 20.5364H16.1667C16.5081 20.5364 16.7853 20.2592 16.7853 19.9178V16.7736H19.9301C20.2715 16.7736 20.5486 16.4965 20.5486 16.1551V13.2583C20.5486 12.9169 20.2715 12.6398 19.9301 12.6398H16.7853V9.49558C16.7853 9.15416 16.5081 8.87701 16.1667 8.87701H13.2767C12.9353 8.87701 12.6582 9.15416 12.6582 9.49558V12.6398H9.50724C9.16582 12.6398 8.88867 12.9169 8.88867 13.2583V16.1551C8.88867 16.4965 9.16582 16.7736 9.50724 16.7736ZM10.1258 13.8769H13.2767C13.6182 13.8769 13.8953 13.5997 13.8953 13.2583V10.1141H15.5482V13.2583C15.5482 13.5997 15.8253 13.8769 16.1667 13.8769H19.3115V15.5365H16.1667C15.8253 15.5365 15.5482 15.8136 15.5482 16.1551V19.2992H13.8953V16.1551C13.8953 15.8136 13.6182 15.5365 13.2767 15.5365H10.1258V13.8769Z" fill="white" stroke="white" stroke-width="0.5"/>
</g>
<defs>
<clipPath id="clip0_201_1325">
<rect width="60" height="60" fill="white"/>
</clipPath>
</defs>
</svg>
