<svg width="24" height="24" viewBox="0 0 24 24" fill="none" xmlns="http://www.w3.org/2000/svg">
<path fill-rule="evenodd" clip-rule="evenodd" d="M19.93 3.96242C20.6098 4.69901 20.9173 5.67219 20.6364 6.734C18.8443 13.5081 13.5081 18.8443 6.73403 20.6364C5.67221 20.9173 4.69903 20.6097 3.96244 19.93C3.2118 19.2372 2.71438 18.1559 2.71438 16.9525V15.9048C2.71438 15.7437 2.86044 15.5277 3.14775 15.4982C4.18884 15.3911 5.19621 15.1687 6.15658 14.8439L7.65912 16.3464C7.95899 16.6463 8.41537 16.7244 8.7979 16.5413C12.1808 14.9224 14.9224 12.1808 16.5414 8.79788C16.7244 8.41536 16.6463 7.95897 16.3464 7.65911L14.8439 6.15656C15.1687 5.19619 15.3911 4.18882 15.4982 3.14772C15.5278 2.86041 15.7438 2.71436 15.9049 2.71436H16.9525C18.156 2.71436 19.2372 3.21178 19.93 3.96242ZM21.3997 2.60602C20.3152 1.43086 18.6945 0.714355 16.9525 0.714355H15.9049C14.5932 0.714355 13.6298 1.76538 13.5087 2.9431C13.3971 4.02839 13.1392 5.06962 12.7552 6.04726C12.6098 6.41749 12.6976 6.8387 12.9789 7.11996L14.419 8.56005C13.0807 11.0381 11.0381 13.0807 8.56007 14.4189L7.11997 12.9788C6.83871 12.6976 6.4175 12.6098 6.04728 12.7552C5.06964 13.1392 4.02841 13.3971 2.94312 13.5087C1.76541 13.6298 0.71438 14.5932 0.71438 15.9048V16.9525C0.71438 18.6945 1.43088 20.3152 2.60605 21.3997C3.79527 22.4972 5.45979 23.0423 7.24553 22.5699C14.7148 20.5939 20.5939 14.7148 22.5699 7.2455C23.0423 5.45976 22.4972 3.79524 21.3997 2.60602Z" fill="#B88D4A"/>
</svg>
