<svg width="192" height="123" viewBox="0 0 192 123" fill="none" xmlns="http://www.w3.org/2000/svg">
<path d="M104.207 31.0357C103.501 29.8761 103.123 28.6061 102.448 27.472C101.694 26.1397 100.809 24.8862 99.8059 23.7299C99.4574 23.3391 99.147 23.2499 98.7183 23.6534C96.8411 25.4416 94.7508 27.0218 93.2937 29.2177C92.9583 29.7189 92.6315 30.2286 92.3041 30.7383C91.9773 31.2481 92.1594 31.5411 92.7545 31.5369C93.8841 31.5369 95.0098 31.5369 96.1526 31.4774C96.9344 31.4434 98.2002 32.6923 98.0766 33.4695C98.0134 33.8943 97.6518 33.7754 97.3763 33.7754C95.4984 33.7754 93.6165 33.7754 91.7393 33.7754C91.5538 33.7598 91.3677 33.7848 91.1935 33.8488C91.0193 33.9127 90.8608 34.014 90.7299 34.1455C90.5991 34.277 90.4978 34.4356 90.4347 34.6101C90.3716 34.7846 90.3466 34.9708 90.363 35.1558C90.363 35.725 90.822 35.5806 91.1317 35.5806C93.2555 35.5806 95.4089 35.5806 97.5499 35.5806C98.7775 35.5806 99.3982 36.2772 99.3042 37.5175C99.2706 37.9422 98.9346 37.9422 98.667 37.9422C97.1041 37.9422 95.5451 37.921 93.9946 37.8998C92.7801 37.8998 91.565 37.8785 90.3545 37.8531C89.3603 37.8531 89.6194 38.6643 89.5049 39.1655C89.3774 39.7942 89.9297 39.7304 90.3203 39.7304C93.128 39.7304 95.9317 39.7304 98.7354 39.7304C99.6954 39.7304 99.6441 39.7305 99.7079 41.1534C99.746 41.9434 99.4107 42.0369 98.7479 42.0284C95.9698 41.9987 93.1963 42.0284 90.4183 42.0284C89.284 42.0284 89.2584 42.0624 89.4412 43.2305C89.5858 44.1352 89.7298 45.0441 89.8955 46.1018C89.1689 45.4944 89.1058 44.7086 88.8974 44.0587C87.5008 39.9003 87.5501 35.3919 89.0374 31.2651C90.367 27.523 92.7413 24.6261 95.7364 22.1073C98.6756 19.5472 100.833 16.2096 101.96 12.4782C103.088 8.74679 103.139 4.77308 102.108 1.01388C101.947 0.444704 102.155 0.364001 102.631 0.364001C107.346 0.364001 112.06 0.270552 116.772 0.427712C119.46 0.442886 122.121 0.957064 124.621 1.9441C128.054 3.418 130.454 5.72869 131.018 9.66192C131.494 12.992 130.989 16.0333 128.895 18.688C127.657 20.2288 126.003 21.3817 124.129 22.0096L123.64 22.1838C123.457 22.2559 123.181 22.2687 123.194 22.5193C123.207 22.7699 123.492 22.7274 123.678 22.7699C126.095 23.3093 128.38 24.1292 130.292 25.7814C131.801 27.0534 132.898 28.7468 133.439 30.6449C134.288 33.5262 134.105 36.6131 132.921 39.3737C131.575 42.5594 129.048 44.5599 125.883 45.779C123.016 46.8599 119.971 47.3931 116.907 47.3506C112.571 47.3506 108.233 47.3506 103.896 47.3506C102.911 47.3506 102.936 47.3506 103.301 46.4798C103.784 45.3433 104.165 44.1664 104.44 42.9629C104.58 42.313 104.818 41.9392 105.634 41.9519C109.104 42.0029 112.575 42.0157 116.045 41.9519C118.3 41.9052 120.526 41.5951 122.57 40.4993C125.093 39.14 126.329 36.9993 126.473 34.1959C126.686 30.0503 124.438 27.1194 120.408 26.1255C118.584 25.6765 116.712 25.454 114.834 25.4629C111.623 25.4629 108.416 25.4883 105.205 25.4629C104.453 25.4629 104.177 25.688 104.198 26.4525C104.236 27.9774 104.207 29.5066 104.207 31.0357ZM111.096 5.86036H105.345C104.19 5.86036 104.13 5.86036 104.207 6.97749C104.376 8.3866 104.42 9.80807 104.338 11.225C104.057 13.9392 104.283 16.6534 104.198 19.3676C104.198 19.8561 104.228 20.1959 104.869 20.1916C108.603 20.1619 112.333 20.2214 116.062 20.1322C117.867 20.1065 119.621 19.5284 121.087 18.4756C123.096 17.023 123.691 14.9459 123.695 12.5545C123.695 8.91011 121.418 6.90948 118.241 6.2214C115.76 5.66497 113.241 5.9623 111.096 5.86036Z" fill="white"/>
<path d="M87.3943 29.5536C87.3391 28.0203 87.3391 28.0203 85.7465 28.0203C83.5504 28.0203 81.3542 28.0203 79.1534 28.0203C78.8865 27.9907 78.6169 28.0432 78.3802 28.1706C78.1435 28.2981 77.9508 28.4945 77.8285 28.7339C74.218 34.6804 70.5733 40.6058 66.9542 46.5482C66.8273 46.8199 66.6208 47.0468 66.3624 47.1985C66.1033 47.3503 65.8048 47.4197 65.5056 47.3976C63.2798 47.3552 61.0539 47.3976 58.8281 47.3722C58.6326 47.3722 58.3438 47.3976 58.2588 47.2872C58.0889 47.0663 58.3439 46.8624 58.4627 46.6841C62.4812 40.5109 66.5012 34.3421 70.522 28.1774C71.096 27.2982 71.0743 27.2896 70.0972 27.0136C64.9449 25.5779 61.3725 22.405 60.3021 17.0998C59.3081 12.1726 60.1874 7.55972 64.261 4.09372C66.7076 2.00817 69.6639 1.02273 72.8076 0.6447C77.9646 0.0203077 83.1466 0.496032 88.3162 0.34312C88.881 0.34312 89 0.513023 88.8514 1.06096C88.3333 2.97661 88.3504 2.98086 90.3085 2.98086C93.2306 2.98086 96.1494 2.98086 99.0715 2.98086C99.3608 2.98086 99.7855 2.83644 99.8704 3.27394C99.9894 3.8856 100.24 4.54821 99.9381 5.13013C99.8066 5.40197 99.4075 5.2788 99.1267 5.2788H89.0638C88.1676 5.2788 87.7467 5.93291 88.1038 6.74845C88.278 7.17323 88.639 7.0203 88.9277 7.0203C91.5913 7.0203 94.2504 7.0203 96.9095 7.0203C97.759 7.0203 98.5829 7.09252 99.4239 7.09252C99.9808 7.09252 100.244 7.2709 100.108 7.86558C100.062 8.09204 100.039 8.32259 100.04 8.55366C100.014 9.15254 99.7513 9.40321 99.1142 9.38197C95.9028 9.34796 92.6927 9.34796 89.4846 9.38197C89.0894 9.38197 88.3924 9.02513 88.3799 9.88317C88.3589 10.8856 88.6561 11.1574 89.6076 11.1574C92.6105 11.1574 95.6181 11.2254 98.6256 11.1999C99.4752 11.1999 99.5048 11.493 99.322 12.1599C98.9741 13.4341 98.9189 13.5063 97.5808 13.5021C95.2657 13.5021 92.9505 13.5021 90.6399 13.5021C90.2875 13.5021 89.6884 13.1835 89.5865 13.8419C89.5661 14.199 89.6819 14.5503 89.9107 14.8253C90.1395 15.1004 90.4637 15.2787 90.8181 15.3243C92.5809 15.3243 94.3484 15.3243 96.1106 15.3243C96.701 15.3243 97.5808 15.0269 97.8103 15.4899C98.0391 15.9529 97.3303 16.5688 97.0706 17.1337C96.9923 17.3061 96.8588 17.4473 96.6912 17.5351C96.5235 17.6228 96.3309 17.652 96.1448 17.618C94.8705 17.618 93.5962 17.618 92.3219 17.618C92.1009 17.618 91.8208 17.5457 91.7189 17.8219C91.617 18.0979 91.8208 18.1999 91.9438 18.3528C92.5001 19.0536 93.0609 19.7545 93.6428 20.4426C93.8723 20.7187 94.0084 20.9226 93.6428 21.2242C91.0331 23.4387 88.9513 26.2093 87.5515 29.3328C87.5094 29.4129 87.4561 29.4872 87.3943 29.5536ZM80.9084 22.6725C82.7856 22.6725 84.6675 22.6471 86.5448 22.6725C87.199 22.6725 87.3943 22.4347 87.3943 21.8231C87.3687 19.831 87.3943 17.8388 87.3943 15.8425C87.389 15.5553 87.3476 15.2699 87.2714 14.993C86.556 12.2182 86.4297 9.32428 86.9018 6.49785C86.9781 5.97964 86.842 5.81823 86.3409 5.82248C82.76 5.85221 79.1666 5.71204 75.5981 5.93716C71.4399 6.20051 68.1095 8.30733 67.5913 12.7333C67.2514 15.6556 67.7991 18.3443 70.1018 20.3789C71.5405 21.5968 73.3211 22.3387 75.199 22.5026C77.0973 22.671 79.0029 22.7333 80.9084 22.6896V22.6725Z" fill="white"/>
<path d="M46.7939 82.9834C46.7939 78.5324 46.7939 74.0636 46.7939 69.629C46.7939 68.9114 46.9936 68.6904 47.72 68.699C51.1904 68.7417 54.6609 68.699 58.1271 68.7503C60.2042 68.7924 62.2601 69.0561 64.1801 69.9901C65.206 70.4368 66.0781 71.1748 66.6883 72.1127C67.2985 73.0507 67.62 74.1471 67.6121 75.266C67.7141 78.3285 66.4312 80.5458 63.5557 81.7646C63.3603 81.8455 63.012 81.8369 63.0162 82.1132C63.0205 82.3888 63.3858 82.4355 63.6152 82.4908C65.3845 82.8492 66.9638 83.8378 68.0586 85.2731C70.2758 88.1573 69.473 93.5259 65.8624 95.5524C64.1273 96.5489 62.1707 97.0968 60.1702 97.1449C55.9522 97.2212 51.7299 97.1666 47.5118 97.2001C46.8237 97.2001 46.7939 96.8607 46.7982 96.3509C46.7982 91.8993 46.7982 87.4476 46.7982 82.9966L46.7939 82.9834ZM51.1692 88.9091C51.1692 90.3233 51.1692 91.7421 51.1692 93.1562C51.1692 93.7384 51.3985 94.0061 51.989 94.0061C53.9855 94.0061 55.9819 94.0528 57.9784 93.9804C59.0199 93.9982 60.0593 93.8811 61.0708 93.6325C62.7699 93.1181 64.091 92.1709 64.571 90.366C65.051 88.5605 64.8173 86.8661 63.3561 85.5237C62.4625 84.7311 61.3385 84.2463 60.149 84.1391C57.3582 83.799 54.5461 84.0457 51.7469 83.9858C51.2159 83.9858 51.1607 84.3259 51.1649 84.7422C51.1777 86.1308 51.1692 87.5199 51.1692 88.9091ZM51.1692 76.3704C51.1692 77.5806 51.1692 78.7955 51.1692 80.0064C51.1692 80.5879 51.4156 80.8556 52.0187 80.8556C54.3805 80.7793 56.7465 80.9917 59.104 80.6898C61.606 80.3715 63.1607 78.6639 63.1097 76.1237C63.0587 73.7242 61.7674 72.5264 59.0743 72.1693C56.7211 71.8549 54.3465 72.0884 51.9848 72.0121C51.3858 72.0121 51.1649 72.2331 51.1819 72.8323C51.2074 73.9998 51.1819 75.1851 51.1819 76.3704H51.1692Z" fill="white"/>
<path d="M21.7619 68.7246C23.6097 68.7246 25.4617 68.7246 27.3095 68.7246C27.8999 68.7246 28.159 68.8858 28.1378 69.4975C28.1123 71.6681 28.1378 73.834 28.1378 76.0046C28.1406 76.1901 28.0936 76.3723 28.0017 76.5328C27.9097 76.694 27.7763 76.8268 27.6153 76.9183C24.935 78.8468 23.6054 81.5436 23.3038 84.7718C23.2443 85.3835 23.0362 85.5579 22.4542 85.5493C21.2691 85.5493 20.084 85.617 18.9031 85.5828C18.6338 85.5565 18.3628 85.6131 18.1267 85.7453C17.8905 85.8775 17.7005 86.0788 17.5821 86.3222C15.5813 89.6353 13.5382 92.9188 11.5544 96.2404C11.1297 96.9626 10.6582 97.3277 9.77462 97.2553C8.70633 97.2001 7.63586 97.2001 6.56753 97.2553C6.00258 97.2553 5.89638 97.1192 6.21922 96.6265C8.07128 93.7949 9.91198 90.9633 11.7413 88.1316C12.2596 87.3371 12.7523 86.5221 13.3088 85.7486C13.6953 85.2138 13.5084 85.0139 12.9604 84.8527C10.8663 84.2325 9.10768 83.115 8.04577 81.1489C5.70099 76.7906 7.09425 70.8952 12.952 69.2982C14.1543 68.9897 15.3894 68.8266 16.6305 68.8134C18.3297 68.7667 20.0288 68.8134 21.7279 68.8134L21.7619 68.7246ZM23.5757 77.1261C23.5757 75.6823 23.5502 74.2379 23.5757 72.7981C23.5757 72.1949 23.3845 71.9739 22.7813 71.991C20.615 72.0673 18.4528 71.9272 16.2907 72.1101C12.7396 72.4028 10.6879 75.4396 11.8093 78.8251C12.5144 80.949 14.2645 82.1467 16.9066 82.223C18.8946 82.2783 20.8911 82.223 22.8833 82.2572C23.4142 82.2572 23.5842 82.0744 23.5757 81.5482C23.5544 80.0998 23.5757 78.6126 23.5757 77.1261Z" fill="white"/>
<path d="M115.377 93.2667C114.6 94.2652 113.98 95.1611 113.092 95.8405C111.853 96.7982 110.369 97.3869 108.811 97.5402C107.239 97.7585 105.639 97.6487 104.112 97.2172C103.058 96.8844 102.127 96.245 101.438 95.3801C100.749 94.5152 100.334 93.4641 100.247 92.3623C99.8819 88.3014 102.231 86.2156 105.595 85.3533C108.432 84.6232 111.325 84.7337 114.21 84.7034C115.361 84.7034 115.458 84.6232 115.382 83.4636C115.254 81.5265 114.753 79.7979 112.633 79.1224C110.971 78.5751 109.162 78.6705 107.566 79.3901C107.122 79.5749 106.73 79.865 106.423 80.2347C106.116 80.605 105.904 81.0437 105.803 81.514C105.637 82.2954 105.238 82.4993 104.529 82.3631C103.675 82.2086 102.805 82.1487 101.937 82.1849C101.279 82.2145 101.194 81.858 101.343 81.3653C101.565 80.507 101.967 79.7065 102.523 79.0165C103.079 78.3265 103.776 77.7628 104.567 77.3642C107.825 75.7711 111.278 75.7198 114.698 76.6459C117.96 77.5293 119.676 80.0143 119.689 83.3952C119.689 86.2275 119.689 89.0591 119.689 91.8907C119.682 92.4689 119.776 93.0438 119.965 93.5897C120.057 93.8817 120.232 94.1409 120.469 94.3343C120.706 94.5283 120.995 94.6493 121.299 94.6816C121.724 94.7447 121.936 94.9065 121.817 95.365C121.788 95.536 121.778 95.7103 121.788 95.8833C121.788 97.2975 121.788 97.3448 120.369 97.4126C117.761 97.5356 116.1 96.7962 115.624 94.0146C115.554 93.7614 115.471 93.5121 115.377 93.2667ZM112.255 87.2397V87.2693C111.504 87.2693 110.752 87.2351 110.004 87.2693C108.732 87.2976 107.484 87.6219 106.359 88.2165C105.697 88.6026 105.178 89.1926 104.879 89.899C104.581 90.6048 104.519 91.3889 104.703 92.1328C105.102 93.7383 106.164 94.5579 107.906 94.5921C108.331 94.5921 108.755 94.5921 109.206 94.5921C110.064 94.5783 110.911 94.3889 111.693 94.0363C112.476 93.6838 113.178 93.1747 113.757 92.5406C114.336 91.9065 114.779 91.1606 115.059 90.3489C115.339 89.5379 115.45 88.6776 115.386 87.8212C115.356 87.3667 115.195 87.2141 114.766 87.2266C113.929 87.2351 113.092 87.2226 112.255 87.2226V87.2397Z" fill="white"/>
<path d="M85.5203 93.3821C84.7773 94.1971 84.1737 95.1443 83.265 95.8369C81.2851 97.3451 79.0173 97.6977 76.6383 97.5997C75.4508 97.5799 74.2857 97.2754 73.2402 96.7117C71.3879 95.6843 70.5765 94.0656 70.4023 92.0607C70.088 88.3273 72.4288 86.212 75.7125 85.3582C78.5498 84.6235 81.4423 84.7425 84.3269 84.7044C85.5249 84.7044 85.5328 84.7037 85.5203 83.4935C85.4822 79.862 83.2906 78.5406 79.8366 78.8767C79.2889 78.9089 78.7464 79.0082 78.223 79.174C77.6687 79.349 77.169 79.6647 76.7738 80.0902C76.3786 80.5165 76.1005 81.0374 75.967 81.6031C75.7842 82.3043 75.4278 82.4529 74.7861 82.4016C73.8984 82.3128 73.0061 82.2319 72.1145 82.2108C71.4728 82.2108 71.3623 81.8708 71.5155 81.361C71.7627 80.4685 72.2013 79.6397 72.7997 78.9319C73.398 78.2242 74.1423 77.6546 74.9814 77.2626C76.1228 76.7041 77.3597 76.37 78.6261 76.2766C81.226 76.0812 83.8002 76.0095 86.2337 77.2369C88.6679 78.4643 89.747 80.427 89.8147 83.0094C89.8916 86.0166 89.8489 89.0239 89.8403 92.0311C89.8436 92.581 89.9488 93.125 90.1507 93.6367C90.3585 94.1761 90.6945 94.6391 91.3014 94.6858C91.9813 94.7411 92.0621 95.1107 92.0575 95.6711C92.0575 97.4083 92.0023 97.4339 90.2776 97.4852C87.5508 97.5569 85.9793 96.2361 85.809 93.9465C85.8169 93.8353 85.7939 93.7235 85.7432 93.6242C85.6919 93.5249 85.615 93.4407 85.5203 93.3821ZM82.4536 87.2229V87.2525C81.6422 87.2525 80.8308 87.2183 80.024 87.2525C78.5965 87.3334 77.2242 87.6136 76.0479 88.5266C74.7736 89.4909 74.744 90.8504 74.9222 92.2225C75.0754 93.3986 75.8907 94.0997 76.9783 94.4609C77.7851 94.7325 78.6392 94.6049 79.4717 94.5885C83.0013 94.5029 85.7537 91.6148 85.665 87.8346C85.665 87.3887 85.4947 87.2144 85.0528 87.2269C84.1868 87.2354 83.3202 87.2229 82.4536 87.2229Z" fill="white"/>
<path d="M36.8884 87.6392C34.4884 87.6392 32.0927 87.6392 29.6927 87.6392C29.3104 87.6392 28.7794 87.5287 28.8431 88.17C29.0088 90.315 29.3655 92.4178 31.3917 93.6919C33.333 94.9192 35.4527 94.86 37.5766 94.2444C38.1948 94.0905 38.7739 93.809 39.2766 93.4169C39.7792 93.0256 40.1942 92.5336 40.4948 91.9718C40.5228 91.8982 40.5653 91.8317 40.6197 91.7752C40.6741 91.7186 40.7394 91.6739 40.8116 91.6436C40.8838 91.6127 40.9615 91.5976 41.0399 91.5976C41.1182 91.5976 41.1958 91.614 41.2679 91.6449C42.075 91.8528 42.9033 91.9929 43.7273 92.133C44.2838 92.2264 44.4537 92.3711 44.1309 92.9828C43.6144 93.9543 42.9061 94.8107 42.0489 95.5007C41.1918 96.1907 40.2035 96.6998 39.144 96.9964C35.6778 98.0502 32.2243 98.0035 28.9493 96.338C26.4983 95.085 25.2112 92.8934 24.7015 90.2301C24.3282 88.3555 24.2722 86.4316 24.5358 84.5386C25.2962 79.4199 28.6137 76.4423 33.7917 76.2002C35.818 76.1029 37.8356 76.1667 39.7387 77.0711C43.0137 78.6431 44.4112 81.4504 44.8657 84.874C44.9465 85.4732 44.9507 86.0843 45.0399 86.6835C45.1504 87.4353 44.8997 87.6984 44.1096 87.682C41.6841 87.6096 39.2884 87.6392 36.8884 87.6392ZM34.9132 84.9931H40.1082C40.4905 84.9931 40.9323 84.9931 40.8729 84.4366C40.6605 82.4653 40.0233 80.648 38.1457 79.7087C35.0916 78.184 29.7436 78.6385 28.8686 83.8887C28.7114 84.8359 28.7709 84.9799 29.7181 84.9885C31.4343 85.0056 33.1801 84.9931 34.9132 84.9931Z" fill="white"/>
<path d="M177.91 87.6268C175.54 87.6268 173.17 87.6268 170.799 87.6268C170.167 87.6268 169.95 87.7794 169.95 88.4503C170.005 91.3307 171.262 93.4795 173.709 94.278C174.849 94.6727 176.067 94.7858 177.261 94.6076C178.454 94.4293 179.586 93.9649 180.561 93.2546C180.84 93.0487 181.067 92.779 181.223 92.4686C181.648 91.6405 182.269 91.5385 183.084 91.8062C183.604 91.9792 184.143 92.0904 184.69 92.1377C185.467 92.1884 185.48 92.562 185.165 93.0888C184.323 94.5484 183.065 95.7225 181.551 96.4611C178.9 97.7615 176.058 97.9141 173.259 97.4214C169.211 96.7078 166.624 94.5076 165.753 89.9369C165.238 87.5275 165.329 85.0274 166.016 82.6608C166.5 80.9868 167.469 79.4944 168.803 78.3729C170.136 77.2514 171.773 76.5516 173.505 76.3621C175.502 76.1069 177.481 76.0135 179.427 76.57C183.483 77.7296 185.446 80.873 185.921 84.7676C186.007 85.4562 186.04 86.1482 186.078 86.8408C186.109 87.4012 185.896 87.665 185.272 87.6604C182.812 87.6268 180.357 87.6604 177.897 87.6604L177.91 87.6268ZM175.99 85.0103H180.238C182.328 85.0103 182.2 85.2221 181.674 83.039C180.879 79.743 178.275 78.6939 175.077 79.0339C171.598 79.399 170.124 81.9688 169.979 84.2032C169.941 84.7978 170.103 85.0313 170.731 85.0182C172.46 84.9886 174.232 85.0103 175.99 85.0103Z" fill="white"/>
<path d="M123.653 85.8847C123.58 83.7904 123.818 80.4648 123.546 77.1478C123.508 76.6545 123.831 76.5571 124.205 76.5486C124.867 76.5486 125.534 76.5486 126.197 76.5486C127.472 76.5486 127.684 76.6933 127.586 77.9713C127.539 78.6172 127.7 79.246 127.667 79.8702C127.667 80.036 127.667 80.2524 127.845 80.3201C128.023 80.3885 128.202 80.1886 128.312 80.0314C128.783 79.2717 129.355 78.5791 130.012 77.9713C132.135 76.196 134.586 75.9198 137.19 76.2723C138.314 76.3868 139.387 76.8025 140.294 77.4753C141.201 78.1476 141.911 79.0533 142.347 80.0952C142.797 81.0654 143.043 82.1184 143.069 83.1873C143.095 87.6133 143.069 92.0354 143.116 96.4614C143.116 97.06 142.874 97.1961 142.334 97.1751C141.485 97.1448 140.601 97.1284 139.735 97.1751C139.085 97.2132 138.885 96.9922 138.885 96.3253C138.915 92.8845 138.915 89.4445 138.906 86.0038C138.935 84.7067 138.746 83.4149 138.346 82.1809C137.568 79.9044 135.066 79.0974 133.163 79.348C129.765 79.7722 127.909 82.5802 127.828 85.8084C127.743 89.2741 127.781 92.7444 127.828 96.2148C127.828 96.9922 127.594 97.2303 126.838 97.1705C126.03 97.1152 125.217 97.1152 124.409 97.1705C123.789 97.2047 123.627 96.9626 123.632 96.368C123.665 93.3009 123.653 90.2088 123.653 85.8847Z" fill="white"/>
<path d="M144.659 87.1296C144.604 84.3598 145.058 81.9261 146.651 79.8239C147.354 78.8709 148.244 78.0704 149.266 77.4725C150.289 76.8746 151.422 76.4904 152.598 76.3451C154.858 76.0261 157.075 76.0346 159.25 76.8377C160.443 77.2482 161.516 77.9467 162.376 78.8702C163.235 79.7937 163.854 80.9152 164.177 82.1346C164.309 82.5589 164.211 82.8733 163.685 82.9029C162.644 82.9627 161.608 83.0351 160.571 83.0943C160.433 83.1259 160.288 83.1042 160.164 83.0344C160.041 82.9647 159.948 82.8509 159.904 82.7161C158.481 79.6411 156.157 78.6176 152.87 79.5687C150.746 80.1804 149.692 81.7183 149.191 83.7527C148.637 86.0121 148.703 88.3787 149.382 90.6039C150.232 93.5223 152.849 94.8517 155.715 94.4905C157.84 94.2314 159.45 93.1908 160.023 90.961C160.036 90.8676 160.068 90.7782 160.117 90.6979C160.166 90.6183 160.231 90.5486 160.308 90.4947C160.385 90.4407 160.472 90.4026 160.564 90.3835C160.656 90.3645 160.751 90.3644 160.843 90.3829C161.85 90.4763 162.861 90.5315 163.868 90.6039C164.576 90.6591 164.419 91.088 164.292 91.5385C163.443 94.4438 161.463 96.2658 158.617 97.0604C155.644 97.9096 152.611 97.8846 149.739 96.5631C147.127 95.3614 145.649 93.1948 144.982 90.4342C144.722 89.3528 144.614 88.2406 144.659 87.1296Z" fill="white"/>
<path d="M93.6304 82.4186C93.6304 77.8229 93.6304 73.2272 93.6304 68.6314C93.6304 67.875 93.8211 67.5994 94.5989 67.6586C95.434 67.7264 96.2737 67.7264 97.1088 67.6586C97.9116 67.5909 98.0734 67.9178 98.0523 68.6485C98.0056 70.3811 98.0523 72.1142 98.0523 73.8514C98.0523 81.2761 98.0523 88.7179 98.0523 96.1341C98.0523 96.9839 97.8353 97.2595 96.9943 97.1832C96.2171 97.1089 95.4353 97.1089 94.6581 97.1832C93.7829 97.2727 93.6172 96.9201 93.6258 96.1131C93.6514 91.568 93.6304 86.9847 93.6304 82.4186Z" fill="white"/>
<path d="M101.896 46.3528C102.305 44.2839 102.463 42.1733 102.368 40.0665C102.106 35.9469 100.611 32.0013 98.0773 28.7425C97.6526 28.2115 97.7203 27.9312 98.1963 27.5531C100.469 25.7479 99.7935 25.5526 101.306 28.0671C103.582 31.8517 104.317 36.0313 103.782 40.4063C103.547 42.2118 103.053 43.974 102.316 45.6392C102.193 45.8865 102.053 46.1249 101.896 46.3528Z" fill="white"/>
<path d="M145.453 106.065C146.808 106.065 146.982 106.294 146.617 107.539C146.298 108.634 145.342 109.272 144.021 109.272C142.556 109.272 141.328 108.422 141.048 107.122C140.789 105.98 140.904 104.879 141.808 103.992C142.21 103.595 142.713 103.315 143.262 103.182C143.812 103.049 144.387 103.07 144.926 103.24C145.075 103.264 145.219 103.315 145.351 103.389C145.682 103.618 146.298 103.792 146.082 104.276C145.822 104.858 145.359 104.506 144.934 104.276C144.587 104.093 144.193 104.018 143.802 104.06C143.412 104.103 143.043 104.26 142.743 104.514C142.419 104.783 142.182 105.142 142.062 105.546C141.943 105.95 141.946 106.38 142.071 106.782C142.139 107.17 142.333 107.526 142.622 107.793C142.911 108.06 143.281 108.225 143.673 108.261C144.395 108.35 145.138 108.375 145.593 107.62C145.784 107.309 145.886 107.02 145.355 106.97C144.986 106.931 144.404 107.135 144.446 106.507C144.459 105.763 145.138 106.201 145.453 106.065Z" fill="white"/>
<path d="M14.7573 106.18C14.7929 105.378 15.1383 104.621 15.7208 104.068C16.3034 103.515 17.0776 103.21 17.8806 103.217C18.6837 103.224 19.4528 103.541 20.0261 104.104C20.5995 104.665 20.9324 105.428 20.9548 106.231C20.9193 107.033 20.5738 107.79 19.9913 108.343C19.4087 108.895 18.6345 109.201 17.8315 109.194C17.0284 109.187 16.2593 108.87 15.686 108.307C15.1126 107.746 14.7797 106.983 14.7573 106.18ZM19.9184 106.218C19.9303 105.946 19.8875 105.674 19.7925 105.419C19.6975 105.164 19.5522 104.93 19.3652 104.732C19.1783 104.534 18.9534 104.375 18.704 104.266C18.4546 104.156 18.1858 104.098 17.9134 104.094C17.6319 104.085 17.3515 104.133 17.0895 104.236C16.8276 104.34 16.5897 104.496 16.3905 104.696C16.1914 104.894 16.0352 105.132 15.9319 105.394C15.8285 105.657 15.7801 105.937 15.7895 106.218C15.7753 106.496 15.8176 106.775 15.914 107.037C16.0103 107.298 16.1587 107.538 16.3503 107.741C16.5417 107.944 16.7723 108.105 17.0281 108.217C17.2839 108.328 17.5596 108.386 17.8385 108.388C18.1174 108.389 18.3938 108.335 18.6509 108.227C18.908 108.118 19.1406 107.96 19.3346 107.759C19.5286 107.559 19.68 107.321 19.7796 107.061C19.8791 106.8 19.925 106.522 19.9141 106.244L19.9184 106.218Z" fill="white"/>
<path d="M123.301 103.1C124.119 103.109 124.901 103.44 125.477 104.021C126.054 104.602 126.378 105.387 126.38 106.205C126.351 107.021 126.011 107.795 125.431 108.37C124.851 108.945 124.074 109.279 123.258 109.302C122.426 109.288 121.634 108.947 121.052 108.352C120.47 107.757 120.147 106.956 120.153 106.125C120.161 105.719 120.249 105.319 120.411 104.948C120.574 104.576 120.808 104.24 121.1 103.959C121.392 103.678 121.737 103.458 122.115 103.311C122.492 103.163 122.895 103.092 123.301 103.1ZM123.301 108.265C123.575 108.268 123.847 108.216 124.101 108.111C124.355 108.006 124.585 107.852 124.778 107.657C124.97 107.461 125.122 107.229 125.222 106.974C125.324 106.719 125.372 106.446 125.365 106.171C125.367 105.89 125.312 105.611 125.203 105.352C125.094 105.092 124.934 104.857 124.732 104.662C124.53 104.466 124.29 104.313 124.028 104.213C123.765 104.113 123.484 104.066 123.203 104.077C122.928 104.076 122.655 104.132 122.403 104.242C122.151 104.353 121.924 104.514 121.738 104.717C121.552 104.92 121.41 105.159 121.321 105.42C121.232 105.68 121.2 105.956 121.224 106.231C121.206 106.505 121.248 106.78 121.346 107.037C121.445 107.294 121.597 107.527 121.793 107.72C121.989 107.913 122.225 108.062 122.484 108.156C122.742 108.25 123.018 108.287 123.292 108.265H123.301Z" fill="white"/>
<path d="M102.52 106.286C102.47 107.096 102.112 107.855 101.518 108.408C100.924 108.962 100.141 109.266 99.3304 109.259C98.5124 109.244 97.7339 108.904 97.1664 108.315C96.599 107.726 96.2886 106.936 96.3038 106.118C96.3189 105.3 96.6582 104.522 97.2473 103.954C97.8365 103.387 98.6268 103.077 99.4448 103.092C100.275 103.111 101.064 103.457 101.64 104.055C102.216 104.653 102.533 105.455 102.52 106.286ZM99.3725 108.27C99.6559 108.286 99.9393 108.243 100.205 108.142C100.47 108.041 100.711 107.885 100.912 107.684C101.112 107.484 101.268 107.243 101.369 106.978C101.47 106.713 101.513 106.429 101.496 106.146C101.497 105.872 101.443 105.601 101.338 105.349C101.233 105.096 101.079 104.866 100.884 104.674C100.69 104.482 100.459 104.33 100.206 104.227C99.9517 104.125 99.6802 104.074 99.4067 104.077C99.1259 104.065 98.8458 104.113 98.5841 104.215C98.3224 104.319 98.085 104.475 97.8877 104.675C97.6898 104.875 97.5366 105.114 97.4367 105.377C97.3367 105.639 97.2933 105.92 97.3085 106.201C97.2914 106.477 97.3334 106.752 97.4314 107.011C97.5287 107.269 97.6806 107.503 97.8753 107.699C98.0705 107.895 98.3046 108.047 98.563 108.145C98.8208 108.243 99.097 108.285 99.3725 108.27Z" fill="white"/>
<path d="M136.287 106.252C136.287 106.974 136.287 107.696 136.287 108.418C136.287 108.635 136.405 108.937 136.154 109.047C135.904 109.157 135.73 108.835 135.547 108.669C134.54 107.717 133.547 106.758 132.549 105.802C132.43 105.683 132.332 105.479 132.145 105.534C131.958 105.589 131.967 105.87 131.967 106.056C131.967 106.863 131.967 107.67 131.967 108.478C131.967 108.818 131.945 109.119 131.487 109.132C131.028 109.145 131.007 108.826 131.007 108.499C131.007 106.91 131.007 105.326 131.007 103.737C131.007 103.576 130.943 103.36 131.13 103.274C131.316 103.189 131.494 103.385 131.631 103.517C132.604 104.459 133.559 105.42 134.54 106.354C134.714 106.519 134.893 106.834 135.169 106.728C135.445 106.621 135.339 106.273 135.343 106.027C135.343 105.334 135.343 104.642 135.343 103.95C135.343 103.58 135.343 103.244 135.862 103.249C136.38 103.253 136.312 103.593 136.312 103.916V106.252H136.287Z" fill="white"/>
<path d="M73.3125 106.193C73.3125 105.385 73.3125 104.578 73.3125 103.767C73.3125 103.406 73.4486 103.24 73.8181 103.244C74.1877 103.249 74.3705 103.377 74.3448 103.754C74.3402 103.784 74.3402 103.814 74.3448 103.844C74.4343 104.336 74.0601 105.118 74.5362 105.28C75.2029 105.513 76.0097 105.373 76.7573 105.36C77.0677 105.36 77.0552 105.067 77.0631 104.834C77.0631 104.409 77.0631 104.027 77.0933 103.623C77.1229 103.219 77.3734 103.244 77.6496 103.244C77.9258 103.244 78.0954 103.346 78.0954 103.644C78.0954 105.343 78.0954 107.042 78.0954 108.741C78.0954 109.106 77.8238 109.119 77.5477 109.123C77.2038 109.123 77.0887 108.92 77.0802 108.626C77.0802 108.053 77.0552 107.475 77.0802 106.898C77.0802 106.473 76.9105 106.307 76.4647 106.282C74.3876 106.158 74.3876 106.141 74.3402 108.249C74.3402 108.363 74.3402 108.478 74.3402 108.593C74.3402 108.949 74.2048 109.119 73.8352 109.123C73.4657 109.127 73.3171 108.966 73.321 108.605C73.321 107.798 73.321 106.991 73.321 106.184L73.3125 106.193Z" fill="white"/>
<path d="M25.6143 105.534C25.6143 104.927 25.6143 104.32 25.6143 103.717C25.6143 103.292 25.8266 103.236 26.1622 103.245C26.4978 103.254 26.6295 103.487 26.6252 103.819C26.6252 104.859 26.5955 105.9 26.6252 106.936C26.6677 108.066 27.5767 108.635 28.6259 108.189C28.8566 108.099 29.0524 107.937 29.1839 107.728C29.3156 107.518 29.3761 107.272 29.3565 107.025C29.3565 105.985 29.3863 104.948 29.382 103.907C29.382 103.513 29.4372 103.232 29.9343 103.24C30.4312 103.249 30.41 103.542 30.41 103.882C30.41 104.978 30.4355 106.074 30.41 107.17C30.3675 108.499 29.4287 109.293 27.9675 109.268C26.5063 109.242 25.6483 108.474 25.6185 107.093C25.6185 106.571 25.6185 106.052 25.6185 105.534H25.6143Z" fill="white"/>
<path d="M39.364 109.102C37.4185 109.246 37.4313 107.344 36.1994 106.736V108.516C36.1994 108.809 36.2291 109.11 35.7746 109.127C35.3201 109.145 35.2563 108.885 35.2563 108.52C35.2563 106.961 35.2563 105.403 35.2563 103.848C35.2563 103.423 35.4136 103.215 35.8638 103.244C36.2376 103.244 36.6157 103.244 36.9895 103.244C37.7074 103.27 38.3318 103.516 38.5272 104.264C38.7225 105.012 38.7523 105.797 37.9367 106.248C37.4058 106.537 37.6139 106.838 37.8476 107.148C38.302 107.747 38.765 108.329 39.364 109.102ZM36.2674 104.855C36.3396 105.152 36.0464 105.678 36.7559 105.678C37.2656 105.678 37.6054 105.496 37.5799 104.94C37.5544 104.383 37.2401 104.192 36.7516 104.141C36.1824 104.073 36.2716 104.468 36.2674 104.846V104.855Z" fill="white"/>
<path d="M151.297 106.222C151.297 105.445 151.318 104.663 151.297 103.886C151.297 103.393 151.476 103.219 151.956 103.236C152.678 103.266 153.399 103.236 154.122 103.236C154.432 103.236 154.623 103.36 154.606 103.699C154.589 104.039 154.419 104.098 154.147 104.098C153.799 104.098 153.455 104.098 153.107 104.098C152.682 104.098 152.321 104.069 152.334 104.697C152.334 105.254 152.512 105.5 153.081 105.449C153.37 105.424 153.659 105.449 153.931 105.449C154.292 105.449 154.585 105.517 154.585 105.942C154.585 106.367 154.241 106.409 153.905 106.405C153.674 106.417 153.444 106.417 153.213 106.405C152.465 106.316 152.295 106.668 152.313 107.356C152.329 108.045 152.52 108.257 153.162 108.176C153.507 108.142 153.854 108.142 154.198 108.176C154.483 108.176 154.594 108.384 154.58 108.652C154.568 108.92 154.479 109.106 154.181 109.11C153.332 109.11 152.508 109.11 151.671 109.11C151.297 109.11 151.297 108.818 151.297 108.554V106.222Z" fill="white"/>
<path d="M61.7369 108.796C61.7666 109.025 61.6689 109.101 61.5033 109.123C61.3343 109.163 61.1566 109.143 61.0013 109.065C60.8459 108.988 60.7229 108.857 60.6537 108.698C60.4713 108.241 60.1188 107.873 59.6703 107.671C59.2218 107.469 58.7124 107.449 58.2495 107.615C58.1397 107.646 58.0394 107.703 57.9578 107.783C57.8761 107.862 57.8158 107.961 57.7822 108.069C57.6463 108.354 57.4934 108.63 57.332 108.919C57.2425 109.055 57.1037 109.15 56.9451 109.185C56.7865 109.22 56.6205 109.192 56.4824 109.106C56.1425 108.975 56.4102 108.681 56.4824 108.524C57.2172 106.897 57.9776 105.283 58.7252 103.664C58.9121 103.24 59.15 103.147 59.3624 103.601C60.144 105.266 60.9001 106.944 61.6647 108.617C61.6921 108.675 61.7162 108.735 61.7369 108.796ZM59.0438 105.275C58.8909 105.75 58.3472 106.124 58.5596 106.621C58.6615 106.846 59.4601 106.846 59.5578 106.621C59.7829 106.149 59.3369 105.725 59.0438 105.275Z" fill="white"/>
<path d="M49.5257 106.184C49.5257 105.406 49.5257 104.629 49.5257 103.852C49.5257 103.427 49.6616 103.211 50.1247 103.236C50.5876 103.261 51.1654 103.236 51.6793 103.274C52.0735 103.328 52.4341 103.525 52.6921 103.828C52.9501 104.131 53.0875 104.518 53.078 104.916C53.0686 105.314 52.9129 105.694 52.6408 105.985C52.3687 106.275 51.9992 106.454 51.6029 106.49C50.422 106.604 50.4688 106.609 50.4008 107.819C50.3795 108.244 50.8255 109.093 49.942 109.093C49.1816 109.072 49.5937 108.278 49.5172 107.819C49.4811 107.273 49.4811 106.725 49.5172 106.179L49.5257 106.184ZM50.5112 104.846C50.5112 105.228 50.3838 105.695 51.0634 105.648C51.5392 105.615 51.9385 105.513 51.9512 104.939C51.9639 104.366 51.5562 104.183 51.0464 104.124C50.439 104.056 50.5027 104.468 50.5112 104.846Z" fill="white"/>
<path d="M161.102 106.744C161.667 105.95 161.884 105.016 162.27 104.162C162.366 103.893 162.495 103.638 162.652 103.401C162.756 103.298 162.892 103.233 163.037 103.217C163.182 103.202 163.328 103.237 163.451 103.317C163.706 103.448 163.536 103.682 163.451 103.852C162.75 105.491 162.032 107.122 161.327 108.766C161.11 109.272 160.903 109.059 160.771 108.766C160.049 107.105 159.356 105.437 158.647 103.767C158.566 103.572 158.515 103.342 158.804 103.282C158.885 103.251 158.971 103.235 159.058 103.237C159.144 103.238 159.229 103.257 159.309 103.293C159.388 103.328 159.459 103.379 159.519 103.442C159.578 103.505 159.624 103.58 159.654 103.661C159.96 104.404 160.261 105.152 160.584 105.89C160.674 106.218 160.854 106.513 161.102 106.744Z" fill="white"/>
<path d="M183.284 105.368C183.703 104.973 184.049 104.505 184.303 103.987C184.415 103.789 184.542 103.599 184.681 103.418C184.78 103.309 184.915 103.237 185.062 103.216C185.208 103.195 185.358 103.226 185.484 103.304C185.841 103.517 185.484 103.729 185.374 103.937C185.252 104.168 185.11 104.389 184.949 104.595C184.078 105.695 183.56 106.897 183.768 108.346C183.819 108.698 183.891 109.127 183.279 109.14C182.668 109.153 182.723 108.715 182.787 108.367C183.084 106.668 182.209 105.394 181.317 104.085C181.177 103.886 180.727 103.572 181.164 103.304C181.248 103.26 181.34 103.233 181.434 103.225C181.529 103.217 181.624 103.228 181.714 103.258C181.804 103.288 181.887 103.336 181.958 103.398C182.029 103.461 182.087 103.537 182.129 103.622C182.511 104.2 182.766 104.863 183.284 105.368Z" fill="white"/>
<path d="M10.9041 103.516C10.8608 103.611 10.8126 103.703 10.7596 103.792C10.6082 104.071 10.4408 104.34 10.2584 104.599C9.38332 105.73 8.84388 106.948 9.0733 108.422C9.12425 108.754 9.16673 109.14 8.61026 109.136C8.05379 109.131 8.00704 108.783 8.06655 108.439C8.36816 106.685 7.48884 105.347 6.59255 103.996C6.46513 103.806 6.06158 103.529 6.46937 103.304C6.54483 103.259 6.62858 103.229 6.71571 103.218C6.80276 103.206 6.8914 103.211 6.97622 103.234C7.06111 103.257 7.14041 103.297 7.20951 103.351C7.27862 103.406 7.33609 103.473 7.37837 103.55C7.64599 103.975 7.94339 104.421 8.19825 104.867C8.45311 105.313 8.72493 105.428 9.04778 104.888C9.31961 104.417 9.62122 103.958 9.9271 103.504C10.0164 103.39 10.1379 103.306 10.2757 103.262C10.4136 103.218 10.5614 103.216 10.7002 103.257C10.8148 103.274 10.8828 103.355 10.9041 103.516Z" fill="white"/>
<path d="M66.465 106.609C66.465 106.002 66.4354 105.394 66.465 104.791C66.5031 104.26 66.3204 104.065 65.7812 104.09C65.4541 104.09 64.9316 104.294 64.9316 103.695C64.9316 103.096 65.5009 103.271 65.8535 103.271C66.703 103.24 67.5868 103.271 68.4527 103.271C68.7591 103.271 69.0564 103.292 69.0517 103.695C69.0478 104.099 68.7374 104.167 68.4402 104.12C67.6117 103.98 67.4888 104.388 67.5144 105.097C67.5565 106.223 67.5144 107.348 67.5144 108.495C67.5144 108.869 67.5144 109.183 66.9831 109.175C66.4525 109.166 66.4736 108.826 66.4736 108.47C66.4736 107.862 66.4736 107.255 66.4736 106.647L66.465 106.609Z" fill="white"/>
<path d="M89.9633 106.545C89.9633 106.171 89.9423 105.797 89.9633 105.423C90.0146 104.625 90.0481 103.878 88.8632 104.094C88.5871 104.145 88.4385 103.924 88.4385 103.669C88.4385 103.414 88.5996 103.244 88.8632 103.244H92.0621C92.1174 103.249 92.172 103.264 92.2219 103.289C92.2719 103.314 92.3166 103.349 92.3528 103.391C92.3896 103.434 92.4172 103.483 92.4343 103.536C92.4521 103.589 92.4586 103.645 92.4547 103.701C92.4508 103.757 92.4356 103.811 92.41 103.861C92.385 103.911 92.3501 103.956 92.3081 103.992C92.2653 104.028 92.216 104.056 92.1634 104.074C92.1101 104.091 92.0536 104.098 91.9984 104.094C90.97 103.907 90.8937 104.459 90.945 105.275C91.0081 106.337 90.945 107.399 90.945 108.469C90.945 108.796 90.945 109.11 90.4729 109.127C90.0014 109.144 89.9337 108.813 89.9337 108.444L89.9633 106.545Z" fill="white"/>
<path d="M175.226 103.245H176.785C177.095 103.245 177.268 103.398 177.256 103.725C177.259 103.783 177.248 103.842 177.224 103.896C177.2 103.949 177.163 103.996 177.117 104.033C177.071 104.069 177.016 104.093 176.958 104.104C176.9 104.115 176.841 104.111 176.785 104.094C175.773 103.903 175.74 104.489 175.769 105.241C175.812 106.307 175.769 107.365 175.769 108.444C175.769 108.818 175.769 109.132 175.238 109.136C174.707 109.141 174.728 108.801 174.724 108.444C174.724 107.229 174.686 106.018 174.724 104.808C174.724 104.302 174.614 104.056 174.053 104.094C173.722 104.115 173.204 104.269 173.204 103.669C173.204 102.999 173.773 103.279 174.121 103.245C174.489 103.226 174.858 103.226 175.226 103.245Z" fill="white"/>
<path d="M113.229 106.099C113.229 105.432 113.229 104.769 113.229 104.107C113.229 103.725 113.102 103.223 113.76 103.257C114.418 103.291 114.227 103.801 114.231 104.162C114.231 105.203 114.231 106.243 114.21 107.284C114.185 107.93 114.371 108.227 115.089 108.214C115.514 108.214 116.313 107.79 116.287 108.681C116.262 109.573 115.476 109.106 115.051 109.106C113.221 109.148 113.221 109.106 113.225 107.313L113.229 106.099Z" fill="white"/>
<path d="M167.848 106.158C167.848 105.406 167.848 104.659 167.848 103.911C167.848 103.546 167.848 103.232 168.361 103.236C168.829 103.236 168.956 103.436 168.952 103.86C168.952 105.445 168.952 107.025 168.952 108.605C168.952 109.029 168.773 109.144 168.378 109.153C167.983 109.162 167.848 108.953 167.856 108.571C167.856 107.768 167.856 106.961 167.856 106.158H167.848Z" fill="white"/>
</svg>
