<svg width="196" height="51" viewBox="0 0 196 51" fill="none" xmlns="http://www.w3.org/2000/svg">
<path d="M47.7695 21.1533C47.7695 16.6096 47.7695 12.0484 47.7695 7.52202C47.7695 6.78929 47.9733 6.56383 48.7148 6.5725C52.2576 6.61586 55.8003 6.5725 59.3387 6.62453C61.4592 6.66789 63.5579 6.9367 65.5179 7.89055C66.5652 8.34649 67.4554 9.09982 68.0783 10.0571C68.7011 11.0144 69.0292 12.1334 69.0217 13.2754C69.1257 16.4015 67.8162 18.6647 64.8805 19.909C64.681 19.9914 64.3255 19.9827 64.3298 20.2645C64.3341 20.5463 64.7071 20.594 64.9412 20.6504C66.7474 21.016 68.3593 22.0252 69.477 23.4903C71.7405 26.4342 70.921 31.9145 67.2351 33.9826C65.464 35.0003 63.4666 35.5592 61.4245 35.6084C57.1186 35.6865 52.8083 35.6301 48.5024 35.6648C47.7999 35.6648 47.7695 35.318 47.7739 34.7977C47.7739 30.2539 47.7739 25.7101 47.7739 21.1664L47.7695 21.1533ZM52.2359 27.2016C52.2359 28.6454 52.2359 30.0935 52.2359 31.5373C52.2359 32.1312 52.4701 32.4044 53.0728 32.4044C55.1109 32.4044 57.1489 32.4521 59.187 32.3784C60.2502 32.3964 61.3112 32.2769 62.3438 32.0228C64.0783 31.4982 65.4269 30.5314 65.9169 28.6887C66.4069 26.8461 66.1684 25.1161 64.6767 23.7461C63.7644 22.9373 62.6171 22.442 61.4028 22.3326C58.5539 21.9858 55.6833 22.2373 52.8256 22.1766C52.2836 22.1766 52.2272 22.5234 52.2316 22.9483C52.2446 24.3661 52.2359 25.7838 52.2359 27.2016ZM52.2359 14.4027C52.2359 15.6384 52.2359 16.8784 52.2359 18.114C52.2359 18.708 52.4874 18.9812 53.1032 18.9812C55.5141 18.9031 57.9294 19.1199 60.3361 18.8121C62.8902 18.4869 64.4772 16.744 64.4252 14.1513C64.3732 11.7016 63.0549 10.4789 60.3057 10.1147C57.9034 9.7939 55.4794 10.0324 53.0685 9.95432C52.4571 9.95432 52.2316 10.1798 52.2489 10.7911C52.2749 11.9834 52.2489 13.1931 52.2489 14.4027H52.2359Z" fill="url(#paint0_linear_105_820)"/>
<path d="M22.2149 6.59863C24.1012 6.59863 25.9918 6.59863 27.8781 6.59863C28.4809 6.59863 28.7454 6.76339 28.7237 7.38773C28.6977 9.60325 28.7237 11.8144 28.7237 14.03C28.7266 14.2189 28.6786 14.4051 28.5847 14.5691C28.4909 14.7331 28.3547 14.8688 28.1903 14.9621C25.4541 16.9305 24.0969 19.6837 23.789 22.9788C23.7283 23.6031 23.5158 23.7809 22.9217 23.7722C21.7119 23.7722 20.5021 23.8416 19.2966 23.8069C19.0217 23.7799 18.7451 23.8378 18.504 23.9726C18.2629 24.1075 18.0689 24.3129 17.948 24.5613C15.9056 27.9431 13.8199 31.2946 11.7948 34.6851C11.3612 35.4221 10.8799 35.795 9.97794 35.7213C8.88737 35.6649 7.79461 35.6649 6.70404 35.7213C6.12731 35.7213 6.01891 35.5826 6.34846 35.0796C8.23908 32.1892 10.1181 29.2987 11.9856 26.4083C12.5147 25.5975 13.0177 24.7651 13.5857 23.976C13.9803 23.4297 13.7895 23.2259 13.2301 23.0611C11.0924 22.4281 9.29714 21.2879 8.21307 19.2805C5.81944 14.8321 7.24174 8.81416 13.2215 7.18395C14.4488 6.86896 15.7096 6.703 16.9767 6.68968C18.7112 6.64199 20.4457 6.68968 22.1802 6.68968L22.2149 6.59863ZM24.0665 15.1746C24.0665 13.7005 24.0405 12.2263 24.0665 10.7565C24.0665 10.1409 23.8714 9.91542 23.2556 9.93276C21.0441 10.0108 18.837 9.86772 16.6298 10.0542C13.0047 10.3533 10.9102 13.4533 12.055 16.9088C12.7748 19.0767 14.5614 20.2993 17.2586 20.3774C19.2879 20.4337 21.326 20.3774 23.3597 20.4121C23.9017 20.4121 24.0752 20.2256 24.0665 19.688C24.0448 18.2095 24.0665 16.6921 24.0665 15.1746Z" fill="url(#paint1_linear_105_820)"/>
<path d="M117.781 31.6504C116.987 32.6693 116.354 33.5841 115.448 34.2778C114.183 35.255 112.668 35.8561 111.077 36.0121C109.473 36.2351 107.84 36.1229 106.281 35.6826C105.205 35.3433 104.254 34.6904 103.551 33.8075C102.848 32.9246 102.424 31.8519 102.335 30.7269C101.962 26.582 104.36 24.4532 107.794 23.5731C110.691 22.8273 113.644 22.9401 116.588 22.9097C117.764 22.9097 117.863 22.8273 117.785 21.6437C117.655 19.6666 117.143 17.902 114.98 17.2127C113.282 16.654 111.436 16.7514 109.806 17.4858C109.354 17.6748 108.953 17.9707 108.64 18.3483C108.326 18.7258 108.109 19.1737 108.007 19.6536C107.838 20.4514 107.43 20.6595 106.706 20.5208C105.834 20.3629 104.947 20.3018 104.061 20.3387C103.389 20.369 103.302 20.0048 103.454 19.5019C103.68 18.6262 104.091 17.8088 104.658 17.1045C105.226 16.4002 105.937 15.8251 106.745 15.4177C110.071 13.7918 113.596 13.7398 117.087 14.685C120.417 15.5868 122.169 18.1231 122.182 21.5743C122.182 24.4648 122.182 27.3552 122.182 30.2457C122.175 30.8357 122.271 31.4225 122.464 31.9799C122.558 32.2781 122.737 32.5424 122.978 32.7403C123.22 32.9383 123.515 33.0613 123.826 33.0942C124.259 33.1592 124.476 33.324 124.355 33.7922C124.325 33.9669 124.315 34.1443 124.324 34.3212C124.324 35.765 124.324 35.8127 122.876 35.882C120.214 36.0078 118.518 35.2534 118.032 32.4135C117.961 32.1553 117.877 31.9007 117.781 31.6504ZM114.594 25.4981V25.5285C113.826 25.5285 113.059 25.4938 112.296 25.5285C110.997 25.5574 109.723 25.8884 108.575 26.4953C107.899 26.8894 107.369 27.4919 107.064 28.2126C106.759 28.9332 106.696 29.7332 106.884 30.4928C107.291 32.1317 108.376 32.9685 110.153 33.0031C110.587 33.0031 111.021 33.0031 111.48 33.0031C112.357 32.9891 113.221 32.796 114.02 32.4359C114.819 32.0758 115.536 31.5562 116.127 30.909C116.717 30.2617 117.17 29.5006 117.456 28.6723C117.742 27.8439 117.855 26.9659 117.79 26.0921C117.759 25.6282 117.594 25.4721 117.156 25.4851C116.302 25.4938 115.448 25.4808 114.594 25.4808V25.4981Z" fill="url(#paint2_linear_105_820)"/>
<path d="M87.3015 31.7676C86.5427 32.6 85.9269 33.5669 84.999 34.2736C82.9783 35.8127 80.6627 36.1726 78.2344 36.0729C77.0222 36.0524 75.8326 35.7417 74.7653 35.1667C72.8747 34.1175 72.0465 32.4656 71.8687 30.4192C71.5478 26.6081 73.9371 24.449 77.2891 23.5775C80.1857 22.8274 83.1387 22.9488 86.083 22.9098C87.3059 22.9098 87.3145 22.9098 87.3015 21.6741C87.2625 17.9671 85.025 16.6187 81.4996 16.9613C80.9399 16.9942 80.3865 17.0961 79.8518 17.2648C79.2861 17.4434 78.7765 17.7659 78.3728 18.2006C77.9692 18.6353 77.6854 19.1674 77.5492 19.7448C77.3628 20.4602 76.9985 20.6119 76.3438 20.5599C75.4375 20.4688 74.5269 20.3864 73.6162 20.3648C72.9615 20.3648 72.8487 20.0179 73.0048 19.4976C73.2576 18.5862 73.7047 17.7403 74.3155 17.018C74.9263 16.2958 75.6863 15.7144 76.5432 15.3137C77.7079 14.7442 78.9708 14.4028 80.2638 14.3078C82.9176 14.1084 85.5453 14.0347 88.03 15.2877C90.5147 16.5407 91.6161 18.5438 91.6855 21.1799C91.7636 24.2495 91.7202 27.3192 91.7115 30.3888C91.7151 30.95 91.8225 31.5056 92.0281 32.0277C92.2406 32.5783 92.5831 33.0509 93.2032 33.0986C93.897 33.155 93.9794 33.5322 93.9751 34.1045C93.9751 35.8778 93.9187 35.9038 92.1582 35.9558C89.3743 36.0295 87.7699 34.6811 87.5964 32.3442C87.6042 32.2304 87.5809 32.1166 87.5289 32.015C87.477 31.9134 87.3984 31.8279 87.3015 31.7676ZM84.1707 25.4808V25.5112C83.3425 25.5112 82.5143 25.4765 81.6904 25.5112C80.2334 25.5936 78.8328 25.8797 77.6316 26.8119C76.3307 27.7961 76.3004 29.1835 76.4825 30.5839C76.6386 31.7849 77.4712 32.5003 78.5813 32.8688C79.4052 33.1463 80.2768 33.0162 81.1267 32.9989C84.7301 32.9122 87.54 29.9639 87.449 26.1052C87.449 25.6499 87.2755 25.4722 86.8246 25.4852C85.94 25.4939 85.0553 25.4808 84.1707 25.4808Z" fill="url(#paint3_linear_105_820)"/>
<path d="M37.6555 25.9059C35.2055 25.9059 32.7598 25.9059 30.3098 25.9059C29.9196 25.9059 29.3775 25.7931 29.4426 26.4478C29.6117 28.6373 29.9759 30.7835 32.0443 32.0842C34.026 33.3372 36.1898 33.2765 38.358 32.6478C38.9891 32.4908 39.5803 32.2033 40.0934 31.8038C40.6065 31.4042 41.0302 30.9016 41.337 30.3282C41.3656 30.2535 41.4089 30.1853 41.4645 30.1277C41.5201 30.0701 41.5868 30.0244 41.6605 29.9932C41.7342 29.962 41.8134 29.9461 41.8935 29.9463C41.9735 29.9465 42.0527 29.9628 42.1262 29.9944C42.9501 30.2068 43.7957 30.3499 44.6369 30.493C45.205 30.5884 45.3784 30.7358 45.0489 31.3601C44.5216 32.3518 43.7985 33.2263 42.9235 33.9305C42.0485 34.6347 41.0397 35.1542 39.9581 35.4573C36.4197 36.5326 32.8943 36.4849 29.551 34.7853C27.0489 33.5063 25.7351 31.2691 25.2147 28.5506C24.8336 26.6371 24.7764 24.6732 25.0456 22.7408C25.8218 17.5164 29.2084 14.477 34.4943 14.2299C36.5628 14.1302 38.6225 14.1952 40.5651 15.1187C43.9084 16.7229 45.3351 19.5888 45.799 23.0833C45.8814 23.6947 45.8858 24.319 45.9768 24.9303C46.0896 25.6977 45.8337 25.9666 45.0272 25.9492C42.5512 25.8755 40.1055 25.9059 37.6555 25.9059ZM35.6391 23.2047H40.9424C41.3327 23.2047 41.7836 23.2047 41.7229 22.6368C41.5061 20.625 40.8557 18.7693 38.939 17.8112C35.8212 16.2547 30.3619 16.7186 29.4686 22.0775C29.3082 23.0443 29.3689 23.1917 30.3359 23.2004C32.0877 23.2177 33.8699 23.2047 35.6391 23.2047Z" fill="url(#paint4_linear_105_820)"/>
<path d="M181.617 25.8925C179.198 25.8925 176.778 25.8925 174.359 25.8925C173.712 25.8925 173.491 26.0486 173.491 26.7337C173.548 29.6733 174.831 31.8671 177.329 32.6822C178.493 33.0852 179.736 33.2006 180.954 33.0187C182.172 32.8367 183.328 32.3628 184.323 31.6373C184.609 31.427 184.841 31.1521 185 30.8352C185.433 29.9897 186.066 29.8857 186.899 30.1588C187.43 30.3357 187.98 30.4492 188.538 30.497C189.332 30.5491 189.345 30.9306 189.024 31.4682C188.164 32.9578 186.879 34.1566 185.334 34.9107C182.628 36.2374 179.727 36.3935 176.869 35.8906C172.737 35.1622 170.096 32.9163 169.207 28.2512C168.681 25.7913 168.774 23.2396 169.476 20.8242C169.969 19.1154 170.959 17.5918 172.32 16.447C173.682 15.3021 175.353 14.5877 177.121 14.3944C179.159 14.1342 181.18 14.0388 183.166 14.6068C187.307 15.7905 189.31 18.9988 189.796 22.9746C189.882 23.677 189.917 24.3837 189.956 25.0904C189.986 25.6628 189.77 25.9316 189.132 25.9272C186.622 25.8925 184.115 25.9272 181.604 25.9272L181.617 25.8925ZM179.657 23.2218H183.994C186.127 23.2218 185.997 23.4386 185.459 21.21C184.649 17.8456 181.99 16.7746 178.725 17.1215C175.174 17.4944 173.669 20.1174 173.522 22.398C173.483 23.005 173.647 23.2435 174.289 23.2304C176.054 23.2001 177.862 23.2218 179.657 23.2218Z" fill="url(#paint5_linear_105_820)"/>
<path d="M126.229 24.115C126.155 21.9775 126.398 18.5827 126.12 15.1966C126.081 14.6936 126.411 14.5939 126.792 14.5852C127.469 14.5852 128.15 14.5852 128.826 14.5852C130.127 14.5852 130.344 14.7326 130.244 16.0377C130.196 16.6967 130.361 17.3384 130.327 17.9757C130.327 18.1448 130.327 18.3659 130.509 18.4353C130.691 18.5047 130.873 18.3009 130.986 18.1405C131.467 17.3648 132.05 16.6575 132.72 16.0377C134.888 14.2254 137.39 13.9436 140.048 14.3034C141.196 14.42 142.291 14.8441 143.217 15.5309C144.144 16.2177 144.868 17.1417 145.313 18.2055C145.772 19.1959 146.023 20.2703 146.05 21.3619C146.076 25.8796 146.05 30.3931 146.098 34.9108C146.098 35.5222 145.85 35.6609 145.3 35.6392C144.432 35.6089 143.53 35.5915 142.646 35.6392C141.982 35.6782 141.779 35.4528 141.779 34.7721C141.809 31.2602 141.809 27.7483 141.8 24.2364C141.83 22.9128 141.636 21.5937 141.228 20.3343C140.434 18.0104 137.88 17.1866 135.938 17.4424C132.469 17.876 130.574 20.7419 130.491 24.037C130.405 27.5749 130.444 31.1171 130.491 34.6594C130.491 35.4528 130.253 35.6956 129.481 35.6349C128.655 35.5785 127.826 35.5785 127.001 35.6349C126.368 35.6696 126.203 35.4224 126.207 34.8154C126.242 31.6851 126.229 28.5287 126.229 24.115Z" fill="url(#paint6_linear_105_820)"/>
<path d="M147.672 25.3854C147.616 22.5586 148.08 20.0742 149.706 17.9281C150.424 16.9552 151.332 16.1386 152.376 15.5281C153.42 14.9176 154.577 14.526 155.777 14.3772C158.084 14.052 160.347 14.0607 162.568 14.8801C163.785 15.2995 164.881 16.012 165.758 16.9549C166.636 17.8978 167.267 19.042 167.598 20.2867C167.732 20.7202 167.632 21.0411 167.095 21.0714C166.032 21.1321 164.974 21.2058 163.916 21.2665C163.775 21.2985 163.627 21.2767 163.501 21.2054C163.375 21.134 163.28 21.0182 163.235 20.8807C161.783 17.7416 159.411 16.6967 156.054 17.6679C153.886 18.2923 152.811 19.8618 152.299 21.9386C151.734 24.2448 151.801 26.6608 152.494 28.932C153.362 31.9106 156.033 33.2677 158.96 32.8991C161.128 32.6346 162.771 31.5724 163.357 29.2962C163.37 29.2012 163.403 29.11 163.453 29.0282C163.503 28.9464 163.569 28.8756 163.648 28.8204C163.726 28.7652 163.815 28.7265 163.909 28.707C164.003 28.6874 164.1 28.6872 164.194 28.7065C165.221 28.8019 166.253 28.8583 167.281 28.932C168.005 28.9884 167.845 29.4262 167.715 29.8858C166.847 32.8514 164.827 34.7114 161.921 35.5222C158.886 36.3893 155.79 36.3633 152.859 35.0149C150.192 33.7879 148.683 31.5767 148.002 28.7586C147.737 27.6548 147.626 26.5196 147.672 25.3854Z" fill="url(#paint7_linear_105_820)"/>
<path d="M95.5808 20.5768C95.5808 15.8857 95.5808 11.1945 95.5808 6.50328C95.5808 5.73153 95.776 5.44971 96.5695 5.51041C97.4223 5.57979 98.2794 5.57979 99.1322 5.51041C99.9518 5.44104 100.117 5.77489 100.095 6.52063C100.047 8.28958 100.095 10.0585 100.095 11.8318C100.095 19.4106 100.095 27.0066 100.095 34.5767C100.095 35.4438 99.8737 35.7257 99.0152 35.6476C98.222 35.5718 97.4234 35.5718 96.6302 35.6476C95.7369 35.7387 95.5678 35.3788 95.5765 34.555C95.6025 29.9159 95.5808 25.2377 95.5808 20.5768Z" fill="url(#paint8_linear_105_820)"/>
<path d="M148.484 44.7136C149.867 44.7136 150.045 44.9477 149.672 46.2181C149.346 47.3367 148.371 47.987 147.022 47.987C145.526 47.987 144.273 47.1199 143.987 45.7932C143.722 44.6269 143.839 43.504 144.763 42.5978C145.173 42.1924 145.687 41.9067 146.248 41.7714C146.809 41.6362 147.396 41.6566 147.946 41.8304C148.098 41.8549 148.245 41.9062 148.38 41.9821C148.718 42.2163 149.346 42.394 149.125 42.8883C148.861 43.4823 148.388 43.1224 147.955 42.8883C147.6 42.7012 147.197 42.6244 146.799 42.6676C146.4 42.7109 146.023 42.8723 145.717 43.1311C145.386 43.4056 145.144 43.7723 145.022 44.1845C144.9 44.5968 144.904 45.036 145.032 45.4463C145.101 45.8425 145.298 46.205 145.594 46.4777C145.889 46.7504 146.266 46.9182 146.667 46.9551C147.404 47.0462 148.163 47.0722 148.627 46.3005C148.822 45.984 148.926 45.6891 148.384 45.6371C148.007 45.5981 147.413 45.8062 147.456 45.1645C147.469 44.4058 148.163 44.8524 148.484 44.7136Z" fill="#3E3E3E"/>
<path d="M15.0645 44.8305C15.1008 44.0117 15.4534 43.2388 16.0481 42.6747C16.6427 42.1105 17.4331 41.799 18.2529 41.8058C19.0726 41.8125 19.8578 42.137 20.4431 42.7108C21.0284 43.2847 21.3683 44.0632 21.3911 44.8825C21.3548 45.7014 21.0022 46.4742 20.4075 47.0384C19.8128 47.6025 19.0224 47.914 18.2027 47.9072C17.3829 47.9005 16.5978 47.5761 16.0125 47.0022C15.4271 46.4283 15.0873 45.6498 15.0645 44.8305ZM20.333 44.8695C20.3453 44.5918 20.3016 44.3144 20.2046 44.0538C20.1076 43.7933 19.9592 43.5548 19.7684 43.3527C19.5775 43.1505 19.348 42.9887 19.0934 42.8769C18.8388 42.7651 18.5643 42.7055 18.2863 42.7017C17.999 42.692 17.7127 42.7415 17.4453 42.847C17.1779 42.9525 16.935 43.1119 16.7317 43.3151C16.5284 43.5184 16.369 43.7612 16.2635 44.0286C16.158 44.296 16.1085 44.5822 16.1182 44.8695C16.1036 45.1538 16.1468 45.4381 16.2452 45.7053C16.3436 45.9724 16.4951 46.2169 16.6906 46.4239C16.8861 46.6308 17.1215 46.7961 17.3826 46.9096C17.6437 47.0231 17.9251 47.0825 18.2098 47.0843C18.4945 47.086 18.7767 47.0301 19.0392 46.9198C19.3017 46.8096 19.5391 46.6472 19.7371 46.4427C19.9351 46.2381 20.0896 45.9956 20.1913 45.7297C20.293 45.4638 20.3397 45.18 20.3287 44.8955L20.333 44.8695Z" fill="#3E3E3E"/>
<path d="M125.87 41.6872C126.705 41.6963 127.503 42.034 128.092 42.6271C128.68 43.2203 129.011 44.0212 129.013 44.8566C128.983 45.6896 128.636 46.4798 128.045 47.0668C127.453 47.6538 126.66 47.9936 125.826 48.0173C124.977 48.0036 124.167 47.6552 123.574 47.0478C122.98 46.4405 122.65 45.6234 122.656 44.7742C122.664 44.3604 122.754 43.9523 122.919 43.5731C123.085 43.194 123.324 42.8512 123.623 42.5645C123.921 42.2778 124.273 42.0527 124.659 41.9022C125.044 41.7516 125.456 41.6786 125.87 41.6872ZM125.87 46.9594C126.15 46.9624 126.428 46.9089 126.687 46.8022C126.946 46.6954 127.181 46.5376 127.377 46.3381C127.574 46.1386 127.728 45.9015 127.831 45.641C127.934 45.3805 127.984 45.1019 127.977 44.8219C127.979 44.5347 127.923 44.2502 127.812 43.9854C127.7 43.7206 127.537 43.481 127.33 43.2813C127.124 43.0815 126.88 42.9256 126.611 42.823C126.343 42.7204 126.057 42.6733 125.77 42.6844C125.489 42.6833 125.211 42.7409 124.953 42.8533C124.696 42.9658 124.464 43.1307 124.274 43.3376C124.084 43.5444 123.939 43.7887 123.849 44.0547C123.758 44.3208 123.724 44.6027 123.749 44.8826C123.731 45.1629 123.774 45.4437 123.875 45.706C123.975 45.9684 124.131 46.2061 124.331 46.403C124.531 46.6 124.771 46.7516 125.035 46.8476C125.299 46.9436 125.581 46.9817 125.861 46.9594H125.87Z" fill="#3E3E3E"/>
<path d="M104.655 44.9392C104.604 45.7657 104.238 46.5412 103.632 47.1059C103.026 47.6705 102.227 47.9813 101.399 47.9741C100.564 47.9586 99.7692 47.6121 99.1898 47.0108C98.6104 46.4095 98.2936 45.6027 98.3091 44.7679C98.3247 43.9331 98.6712 43.1386 99.2726 42.5593C99.874 41.98 100.681 41.6632 101.516 41.6788C102.363 41.6981 103.169 42.0517 103.757 42.6624C104.345 43.2731 104.668 44.0915 104.655 44.9392ZM101.442 46.9639C101.731 46.981 102.021 46.9366 102.292 46.8336C102.562 46.7307 102.808 46.5716 103.013 46.3668C103.218 46.162 103.377 45.9162 103.48 45.6454C103.583 45.3747 103.627 45.0852 103.61 44.7961C103.611 44.5168 103.556 44.2402 103.449 43.9824C103.341 43.7245 103.184 43.4905 102.985 43.2941C102.787 43.0976 102.551 42.9425 102.292 42.8379C102.033 42.7333 101.756 42.6812 101.477 42.6846C101.19 42.6728 100.904 42.7209 100.637 42.826C100.37 42.9311 100.128 43.0908 99.9262 43.2949C99.7246 43.499 99.5678 43.743 99.4659 44.0112C99.364 44.2794 99.3193 44.566 99.3347 44.8525C99.3176 45.1338 99.3605 45.4156 99.4603 45.6792C99.5601 45.9428 99.7147 46.1822 99.9138 46.3817C100.113 46.5812 100.352 46.7363 100.616 46.8366C100.879 46.937 101.161 46.9804 101.442 46.9639Z" fill="#3E3E3E"/>
<path d="M139.125 44.9042C139.125 45.6413 139.125 46.3784 139.125 47.1154C139.125 47.3365 139.247 47.6444 138.991 47.7571C138.735 47.8698 138.557 47.5403 138.371 47.3712C137.343 46.4 136.328 45.4202 135.309 44.4446C135.188 44.3232 135.088 44.1151 134.897 44.1715C134.707 44.2279 134.715 44.514 134.715 44.7048C134.715 45.5286 134.715 46.3523 134.715 47.1761C134.715 47.523 134.694 47.8308 134.225 47.8438C133.757 47.8568 133.735 47.5316 133.735 47.1978C133.735 45.5762 133.735 43.959 133.735 42.3375C133.735 42.1728 133.67 41.9516 133.861 41.8649C134.052 41.7782 134.234 41.9777 134.373 42.1121C135.366 43.0746 136.341 44.0544 137.343 45.0083C137.521 45.1774 137.703 45.4982 137.985 45.3898C138.267 45.2814 138.158 44.9259 138.163 44.6744C138.163 43.9677 138.163 43.261 138.163 42.5543C138.163 42.1771 138.163 41.8346 138.692 41.8389C139.221 41.8432 139.151 42.1901 139.151 42.5196V44.9042H139.125Z" fill="#3E3E3E"/>
<path d="M74.8398 44.8438C74.8398 44.02 74.8398 43.1962 74.8398 42.3681C74.8398 41.9996 74.9787 41.8305 75.3559 41.8348C75.7332 41.8391 75.9195 41.9692 75.8935 42.3551C75.8892 42.3853 75.8892 42.4159 75.8935 42.4461C75.9846 42.9491 75.603 43.7468 76.0887 43.9116C76.7695 44.15 77.5933 44.007 78.3565 43.994C78.6731 43.994 78.6601 43.6948 78.6687 43.4563C78.6687 43.0228 78.6688 42.6326 78.6992 42.2207C78.7296 41.8088 78.9854 41.8348 79.2673 41.8348C79.549 41.8348 79.7225 41.9389 79.7225 42.2424C79.7225 43.9766 79.7225 45.7109 79.7225 47.4452C79.7225 47.818 79.4449 47.831 79.1631 47.8354C78.8118 47.8354 78.6948 47.6273 78.6861 47.3281C78.6861 46.7428 78.6601 46.1531 78.6861 45.5635C78.6861 45.1299 78.5127 44.9608 78.0574 44.9348C75.937 44.8091 75.9369 44.7917 75.8892 46.9422C75.8892 47.0593 75.8892 47.1763 75.8892 47.2934C75.8892 47.6576 75.7504 47.831 75.3732 47.8354C74.9959 47.8397 74.8441 47.6749 74.8485 47.3064C74.8485 46.4826 74.8485 45.6589 74.8485 44.8351L74.8398 44.8438Z" fill="#3E3E3E"/>
<path d="M26.1484 44.1715C26.1484 43.5515 26.1484 42.9315 26.1484 42.3159C26.1484 41.8823 26.3652 41.8259 26.7078 41.8346C27.0504 41.8433 27.1848 42.0817 27.1805 42.4199C27.1805 43.4822 27.1501 44.5444 27.1805 45.6023C27.2238 46.7556 28.1518 47.3366 29.2229 46.8813C29.4584 46.7898 29.6582 46.6248 29.7925 46.4108C29.9269 46.1968 29.9887 45.9452 29.9687 45.6933C29.9687 44.6311 29.9991 43.5732 29.9947 42.511C29.9947 42.1077 30.0511 41.8216 30.5584 41.8303C31.0658 41.8389 31.0441 42.1381 31.0441 42.4849C31.0441 43.6035 31.0701 44.7222 31.0441 45.8408C31.0007 47.1978 30.0424 48.0086 28.5507 47.9826C27.0591 47.9566 26.1831 47.1718 26.1528 45.7627C26.1528 45.2294 26.1528 44.7005 26.1528 44.1715H26.1484Z" fill="#3E3E3E"/>
<path d="M40.1834 47.8138C38.1974 47.9612 38.2104 46.0188 36.9529 45.3988V47.2154C36.9529 47.5146 36.9832 47.8224 36.5193 47.8398C36.0553 47.8571 35.9902 47.5926 35.9902 47.2198C35.9902 45.6286 35.9902 44.0374 35.9902 42.4506C35.9902 42.017 36.1507 41.8045 36.6103 41.8349C36.9919 41.8349 37.3778 41.8349 37.7594 41.8349C38.4923 41.8609 39.1297 42.1124 39.3292 42.8755C39.5286 43.6385 39.559 44.4406 38.7264 44.9002C38.1844 45.195 38.3969 45.5029 38.6354 45.8194C39.0994 46.4307 39.572 47.0247 40.1834 47.8138ZM37.0223 43.4781C37.096 43.7816 36.7968 44.3192 37.5209 44.3192C38.0413 44.3192 38.3882 44.1328 38.3622 43.5648C38.3362 42.9968 38.0153 42.8017 37.5166 42.7497C36.9355 42.6803 37.0266 43.0836 37.0223 43.4694V43.4781Z" fill="#3E3E3E"/>
<path d="M154.449 44.8743C154.449 44.0809 154.471 43.2831 154.449 42.4897C154.449 41.9868 154.631 41.809 155.121 41.8263C155.859 41.8567 156.596 41.8263 157.333 41.8263C157.649 41.8263 157.845 41.9521 157.827 42.2989C157.81 42.6458 157.636 42.7065 157.359 42.7065C157.003 42.7065 156.652 42.7065 156.296 42.7065C155.863 42.7065 155.494 42.6761 155.507 43.3178C155.507 43.8858 155.689 44.1372 156.27 44.0852C156.565 44.0592 156.86 44.0852 157.138 44.0852C157.506 44.0852 157.806 44.1546 157.806 44.5882C157.806 45.0217 157.454 45.0651 157.112 45.0607C156.876 45.0737 156.64 45.0737 156.405 45.0607C155.642 44.9697 155.468 45.3296 155.486 46.0319C155.503 46.7343 155.698 46.9511 156.353 46.8687C156.705 46.834 157.059 46.834 157.411 46.8687C157.701 46.8687 157.814 47.0812 157.801 47.3543C157.788 47.6275 157.697 47.8182 157.394 47.8226C156.526 47.8226 155.685 47.8226 154.831 47.8226C154.449 47.8226 154.449 47.5234 154.449 47.2546V44.8743Z" fill="#3E3E3E"/>
<path d="M63.0242 47.5018C63.0545 47.7359 62.9548 47.814 62.7857 47.8356C62.6132 47.8768 62.4318 47.8559 62.2732 47.7766C62.1146 47.6973 61.989 47.5647 61.9184 47.4021C61.7322 46.9358 61.3723 46.56 60.9145 46.3538C60.4567 46.1476 59.9367 46.127 59.4641 46.2965C59.3521 46.3277 59.2497 46.3865 59.1663 46.4675C59.083 46.5486 59.0213 46.6493 58.9871 46.7604C58.8483 47.0509 58.6922 47.3327 58.5274 47.6275C58.4361 47.7658 58.2944 47.8631 58.1325 47.8987C57.9706 47.9344 57.8012 47.9055 57.6602 47.8183C57.3133 47.6839 57.5865 47.3847 57.6602 47.2243C58.4104 45.5638 59.1866 43.9162 59.9497 42.2643C60.1405 41.8308 60.3834 41.7354 60.6002 42.1993C61.3981 43.8989 62.1699 45.6115 62.9505 47.3197C62.9784 47.379 63.003 47.4398 63.0242 47.5018ZM60.275 43.9075C60.1189 44.3931 59.5638 44.7747 59.7806 45.2819C59.8847 45.5117 60.6999 45.5117 60.7997 45.2819C61.0295 44.8007 60.5742 44.3671 60.275 43.9075Z" fill="#3E3E3E"/>
<path d="M50.5576 44.8352C50.5576 44.0418 50.5576 43.2484 50.5576 42.455C50.5576 42.0214 50.6963 41.8003 51.169 41.8263C51.6417 41.8523 52.2314 41.8263 52.7561 41.8653C53.1585 41.9203 53.5265 42.1216 53.7899 42.4308C54.0533 42.7399 54.1935 43.1352 54.1839 43.5412C54.1742 43.9472 54.0153 44.3354 53.7376 44.6317C53.4598 44.928 53.0826 45.1116 52.678 45.1474C51.4725 45.2645 51.5202 45.2688 51.4509 46.5045C51.4292 46.938 51.8845 47.8052 50.9825 47.8052C50.2064 47.7835 50.627 46.9727 50.5489 46.5045C50.512 45.9472 50.512 45.3881 50.5489 44.8309L50.5576 44.8352ZM51.5636 43.4695C51.5636 43.8597 51.4335 44.3366 52.1273 44.2889C52.613 44.2542 53.0206 44.1502 53.0336 43.5649C53.0466 42.9796 52.6303 42.7931 52.11 42.7324C51.4899 42.6631 51.5549 43.0836 51.5636 43.4695Z" fill="#3E3E3E"/>
<path d="M164.457 45.4075C165.034 44.5967 165.255 43.6429 165.65 42.7714C165.747 42.4976 165.878 42.2369 166.04 41.9953C166.145 41.8895 166.284 41.8231 166.432 41.8074C166.581 41.7916 166.73 41.8273 166.855 41.9086C167.116 42.043 166.942 42.2815 166.855 42.4549C166.14 44.1285 165.407 45.7933 164.687 47.4712C164.466 47.9872 164.254 47.7704 164.119 47.4712C163.382 45.776 162.675 44.0721 161.951 42.3682C161.869 42.1687 161.817 41.9346 162.111 41.8739C162.194 41.8412 162.282 41.8253 162.37 41.8271C162.458 41.8289 162.546 41.8483 162.626 41.8843C162.707 41.9202 162.78 41.9719 162.84 42.0364C162.901 42.1009 162.948 42.1769 162.979 42.2598C163.291 43.0185 163.599 43.7816 163.928 44.536C164.021 44.8698 164.204 45.1715 164.457 45.4075Z" fill="#3E3E3E"/>
<path d="M187.102 44.0024C187.531 43.5986 187.883 43.1214 188.143 42.5933C188.258 42.3906 188.386 42.1964 188.529 42.0123C188.63 41.9 188.768 41.8267 188.918 41.8053C189.067 41.7839 189.22 41.8158 189.349 41.8953C189.713 42.1121 189.349 42.3288 189.236 42.5413C189.111 42.7777 188.966 43.0026 188.802 43.2133C187.913 44.3363 187.384 45.5633 187.597 47.0417C187.649 47.4016 187.722 47.8395 187.098 47.8525C186.474 47.8655 186.53 47.4189 186.595 47.0634C186.899 45.3291 186.005 44.0284 185.095 42.693C184.952 42.4893 184.492 42.1684 184.939 41.8953C185.024 41.8502 185.118 41.8228 185.214 41.8148C185.311 41.8068 185.408 41.8183 185.5 41.8487C185.592 41.879 185.677 41.9276 185.749 41.9915C185.822 42.0554 185.881 42.1332 185.923 42.2205C186.313 42.8101 186.573 43.4865 187.102 44.0024Z" fill="#3E3E3E"/>
<path d="M11.1305 42.1122C11.0864 42.2087 11.0372 42.3028 10.9831 42.394C10.8285 42.6782 10.6576 42.9533 10.4714 43.2178C9.57814 44.3711 9.02743 45.6154 9.26159 47.1199C9.31363 47.4581 9.35699 47.8526 8.78893 47.8483C8.22088 47.844 8.17318 47.4884 8.23389 47.1372C8.54177 45.3466 7.64416 43.9809 6.7292 42.6021C6.59911 42.407 6.18717 42.1252 6.60345 41.8954C6.68047 41.8494 6.76599 41.8193 6.85489 41.807C6.94379 41.7948 7.03425 41.8006 7.12087 41.824C7.20748 41.8475 7.28848 41.8882 7.35902 41.9437C7.42956 41.9991 7.48819 42.0683 7.53142 42.1469C7.8046 42.5805 8.10814 43.0357 8.36832 43.491C8.62849 43.9462 8.90602 44.0633 9.23557 43.5126C9.5131 43.0314 9.82097 42.5631 10.1332 42.0992C10.2244 41.9831 10.3484 41.897 10.4891 41.8522C10.6298 41.8073 10.7808 41.8058 10.9224 41.8477C11.0395 41.8651 11.1088 41.9475 11.1305 42.1122Z" fill="#3E3E3E"/>
<path d="M67.8506 45.2688C67.8506 44.6488 67.8202 44.0288 67.8506 43.4131C67.8896 42.8712 67.7031 42.6717 67.1524 42.6977C66.8185 42.6977 66.2852 42.9058 66.2852 42.2945C66.2852 41.6832 66.8662 41.8609 67.2261 41.8609C68.0934 41.8306 68.9953 41.8609 69.8799 41.8609C70.1921 41.8609 70.4957 41.8826 70.4913 42.2945C70.487 42.7064 70.1705 42.7758 69.8669 42.7281C69.0213 42.585 68.8956 43.0012 68.9216 43.7253C68.965 44.8742 68.9216 46.0232 68.9216 47.1938C68.9216 47.5754 68.9216 47.8962 68.3796 47.8875C67.8375 47.8789 67.8592 47.532 67.8592 47.1678C67.8592 46.5478 67.8592 45.9278 67.8592 45.3078L67.8506 45.2688Z" fill="#3E3E3E"/>
<path d="M91.8381 45.2038C91.8381 44.8222 91.8164 44.4407 91.8381 44.0592C91.8901 43.2441 91.9248 42.481 90.715 42.7021C90.4331 42.7541 90.2812 42.5287 90.2812 42.2685C90.2812 42.0084 90.4461 41.835 90.715 41.835H93.9802C94.0371 41.8392 94.0927 41.8547 94.1436 41.8804C94.1946 41.9061 94.24 41.9417 94.2773 41.985C94.3145 42.0282 94.3429 42.0784 94.3607 42.1327C94.3786 42.1869 94.3856 42.2441 94.3813 42.3011C94.377 42.358 94.3616 42.4135 94.3358 42.4645C94.3101 42.5155 94.2746 42.5609 94.2313 42.5981C94.188 42.6353 94.1378 42.6637 94.0836 42.6815C94.0293 42.6994 93.9721 42.7064 93.9151 42.7021C92.8658 42.5113 92.7877 43.075 92.8397 43.9074C92.9048 44.9913 92.8397 46.0753 92.8397 47.1678C92.8397 47.5017 92.8397 47.8225 92.3584 47.8399C91.8771 47.8572 91.8077 47.519 91.8077 47.1418L91.8381 45.2038Z" fill="#3E3E3E"/>
<path d="M178.877 41.8347H180.468C180.785 41.8347 180.962 41.9908 180.949 42.3246C180.953 42.3846 180.941 42.4444 180.917 42.4991C180.892 42.5538 180.854 42.6017 180.807 42.6387C180.76 42.6758 180.704 42.7008 180.645 42.7118C180.586 42.7228 180.525 42.7194 180.468 42.7018C179.436 42.5067 179.401 43.1051 179.432 43.8725C179.475 44.9607 179.432 46.0403 179.432 47.1416C179.432 47.5231 179.432 47.8439 178.89 47.8483C178.348 47.8526 178.369 47.5058 178.365 47.1416C178.365 45.9016 178.326 44.6659 178.365 43.4302C178.365 42.9143 178.252 42.6628 177.68 42.7018C177.342 42.7235 176.812 42.8796 176.812 42.2683C176.812 41.5832 177.394 41.8694 177.749 41.8347C178.125 41.8159 178.501 41.8159 178.877 41.8347Z" fill="#3E3E3E"/>
<path d="M115.588 44.7484C115.588 44.0677 115.588 43.3914 115.588 42.715C115.588 42.3248 115.458 41.8132 116.13 41.8479C116.802 41.8826 116.607 42.4028 116.612 42.7714C116.612 43.8336 116.612 44.8958 116.59 45.9581C116.564 46.6171 116.755 46.9206 117.488 46.9076C117.921 46.9076 118.736 46.474 118.71 47.3845C118.684 48.295 117.882 47.8181 117.449 47.8181C115.58 47.8615 115.58 47.8181 115.584 45.9884L115.588 44.7484Z" fill="#3E3E3E"/>
<path d="M171.344 44.8092C171.344 44.0417 171.344 43.2787 171.344 42.5156C171.344 42.1427 171.344 41.8219 171.868 41.8262C172.345 41.8262 172.475 42.03 172.471 42.4636C172.471 44.0808 172.471 45.6936 172.471 47.3065C172.471 47.74 172.289 47.8571 171.886 47.8658C171.483 47.8745 171.344 47.662 171.352 47.2718C171.352 46.4524 171.352 45.6286 171.352 44.8092H171.344Z" fill="#3E3E3E"/>
<defs>
<linearGradient id="paint0_linear_105_820" x1="46.162" y1="21.1185" x2="71.8825" y2="21.1185" gradientUnits="userSpaceOnUse">
<stop stop-color="#8B8B8B"/>
<stop offset="0.509514" stop-color="#CACACA"/>
<stop offset="1" stop-color="#737373"/>
</linearGradient>
<linearGradient id="paint1_linear_105_820" x1="4.5848" y1="21.1645" x2="29.853" y2="21.1645" gradientUnits="userSpaceOnUse">
<stop stop-color="#8F7047"/>
<stop offset="0.509514" stop-color="#DABD9A"/>
<stop offset="1" stop-color="#A58A63"/>
</linearGradient>
<linearGradient id="paint2_linear_105_820" x1="100.75" y1="25.094" x2="125.493" y2="25.094" gradientUnits="userSpaceOnUse">
<stop stop-color="#8B8B8B"/>
<stop offset="0.509514" stop-color="#CACACA"/>
<stop offset="1" stop-color="#737373"/>
</linearGradient>
<linearGradient id="paint3_linear_105_820" x1="70.2904" y1="25.1413" x2="95.082" y2="25.1413" gradientUnits="userSpaceOnUse">
<stop stop-color="#8B8B8B"/>
<stop offset="0.509514" stop-color="#CACACA"/>
<stop offset="1" stop-color="#737373"/>
</linearGradient>
<linearGradient id="paint4_linear_105_820" x1="23.4003" y1="25.1874" x2="47.0582" y2="25.1874" gradientUnits="userSpaceOnUse">
<stop stop-color="#8F7047"/>
<stop offset="0.509514" stop-color="#DABD9A"/>
<stop offset="1" stop-color="#A58A63"/>
</linearGradient>
<linearGradient id="paint5_linear_105_820" x1="167.395" y1="25.1717" x2="191.013" y2="25.1717" gradientUnits="userSpaceOnUse">
<stop stop-color="#8B8B8B"/>
<stop offset="0.509514" stop-color="#CACACA"/>
<stop offset="1" stop-color="#737373"/>
</linearGradient>
<linearGradient id="paint6_linear_105_820" x1="124.719" y1="24.9056" x2="147.097" y2="24.9056" gradientUnits="userSpaceOnUse">
<stop stop-color="#8B8B8B"/>
<stop offset="0.509514" stop-color="#CACACA"/>
<stop offset="1" stop-color="#737373"/>
</linearGradient>
<linearGradient id="paint7_linear_105_820" x1="146.251" y1="25.1444" x2="168.835" y2="25.1444" gradientUnits="userSpaceOnUse">
<stop stop-color="#8B8B8B"/>
<stop offset="0.509514" stop-color="#CACACA"/>
<stop offset="1" stop-color="#737373"/>
</linearGradient>
<linearGradient id="paint8_linear_105_820" x1="95.2597" y1="20.5814" x2="100.323" y2="20.5814" gradientUnits="userSpaceOnUse">
<stop stop-color="#8B8B8B"/>
<stop offset="0.509514" stop-color="#CACACA"/>
<stop offset="1" stop-color="#737373"/>
</linearGradient>
</defs>
</svg>
