<svg width="18" height="19" viewBox="0 0 18 19" fill="none" xmlns="http://www.w3.org/2000/svg">
<path fill-rule="evenodd" clip-rule="evenodd" d="M9 7.8125C8.48223 7.8125 8.0625 8.23223 8.0625 8.75C8.0625 9.26777 8.48223 9.6875 9 9.6875C9.51777 9.6875 9.9375 9.26777 9.9375 8.75C9.9375 8.23223 9.51777 7.8125 9 7.8125ZM6.9375 8.75C6.9375 7.61091 7.86091 6.6875 9 6.6875C10.1391 6.6875 11.0625 7.61091 11.0625 8.75C11.0625 9.88909 10.1391 10.8125 9 10.8125C7.86091 10.8125 6.9375 9.88909 6.9375 8.75Z" fill="white"/>
<path fill-rule="evenodd" clip-rule="evenodd" d="M12.7274 5.02274C10.6689 2.96424 7.33138 2.96424 5.27288 5.02274C3.21438 7.08125 3.21438 10.4187 5.27288 12.4773L9.00013 16.2045L12.7274 12.4772C14.7859 10.4187 14.7859 7.08125 12.7274 5.02274ZM4.47739 4.22725C6.97523 1.72941 11.025 1.72941 13.5229 4.22725C16.0207 6.72509 16.0207 10.7749 13.5229 13.2727L9.39788 17.3977C9.29239 17.5032 9.14932 17.5625 9.00013 17.5625C8.85095 17.5625 8.70787 17.5032 8.60239 17.3977L4.47739 13.2727C1.97954 10.7749 1.97954 6.72509 4.47739 4.22725Z" fill="white"/>
</svg>
