<svg width="21" height="21" viewBox="0 0 21 21" fill="none" xmlns="http://www.w3.org/2000/svg">
<path fill-rule="evenodd" clip-rule="evenodd" d="M17.4386 3.46706C18.0334 4.11157 18.3024 4.9631 18.0567 5.89219C16.4886 11.8195 11.8194 16.4887 5.89209 18.0568C4.96301 18.3025 4.11147 18.0335 3.46696 17.4387C2.81014 16.8325 2.3749 15.8864 2.3749 14.8333V13.9167C2.3749 13.7757 2.5027 13.5867 2.7541 13.5609C3.66505 13.4672 4.5465 13.2725 5.38682 12.9883L6.70155 14.3031C6.96393 14.5654 7.36327 14.6338 7.69798 14.4736C10.658 13.0571 13.057 10.6581 14.4735 7.69809C14.6337 7.36338 14.5653 6.96404 14.3029 6.70166L12.9882 5.38693C13.2724 4.5466 13.4671 3.66515 13.5608 2.7542C13.5866 2.5028 13.7756 2.375 13.9166 2.375H14.8332C15.8863 2.375 16.8324 2.81024 17.4386 3.46706ZM18.7246 2.28021C17.7756 1.25194 16.3575 0.625 14.8332 0.625H13.9166C12.7689 0.625 11.9259 1.54465 11.8199 2.57515C11.7223 3.52478 11.4966 4.43586 11.1606 5.29129C11.0334 5.61524 11.1102 5.9838 11.3563 6.2299L12.6164 7.48998C11.4454 9.65824 9.65813 11.4455 7.48988 12.6165L6.22979 11.3564C5.98369 11.1103 5.61513 11.0335 5.29118 11.1607C4.43575 11.4967 3.52468 11.7224 2.57505 11.82C1.54455 11.926 0.624901 12.769 0.624901 13.9167V14.8333C0.624901 16.3576 1.25184 17.7757 2.28011 18.7247C3.32068 19.685 4.77713 20.1619 6.33966 19.7486C12.8753 18.0196 18.0195 12.8754 19.7485 6.33976C20.1618 4.77723 19.6849 3.32078 18.7246 2.28021Z" fill="white"/>
</svg>
