<svg width="18" height="19" viewBox="0 0 18 19" fill="none" xmlns="http://www.w3.org/2000/svg">
<path fill-rule="evenodd" clip-rule="evenodd" d="M14.9476 3.47176C15.4574 4.0242 15.6881 4.75409 15.4774 5.55045C14.1334 10.631 10.1312 14.6332 5.05064 15.9772C4.25428 16.1879 3.5244 15.9573 2.97196 15.4474C2.40897 14.9279 2.03591 14.1169 2.03591 13.2143V12.4286C2.03591 12.3077 2.14545 12.1457 2.36094 12.1236C3.14175 12.0433 3.89728 11.8765 4.61756 11.6328L5.74446 12.7598C5.96936 12.9847 6.31165 13.0432 6.59855 12.9059C9.13574 11.6918 11.192 9.63555 12.4061 7.09836C12.5434 6.81147 12.4848 6.46917 12.2599 6.24428L11.133 5.11737C11.3767 4.39709 11.5435 3.64156 11.6238 2.86074C11.6459 2.64525 11.8079 2.53571 11.9288 2.53571H12.7145C13.6171 2.53571 14.4281 2.90878 14.9476 3.47176ZM16.0499 2.45446C15.2365 1.57309 14.021 1.03571 12.7145 1.03571H11.9288C10.945 1.03571 10.2225 1.82399 10.1317 2.70727C10.0479 3.52124 9.85451 4.30216 9.56651 5.03539C9.45745 5.31306 9.52332 5.62897 9.73427 5.83991L10.8143 6.91998C9.81065 8.77849 8.27868 10.3105 6.42017 11.3141L5.3401 10.2341C5.12916 10.0231 4.81325 9.95726 4.53558 10.0663C3.80235 10.3543 3.02143 10.5477 2.20747 10.6315C1.32418 10.7223 0.535908 11.4448 0.535908 12.4286V13.2143C0.535908 14.5208 1.07328 15.7363 1.95466 16.5497C2.84657 17.3729 4.09496 17.7816 5.43427 17.4273C11.0362 15.9454 15.4455 11.536 16.9275 5.93407C17.2818 4.59477 16.8731 3.34638 16.0499 2.45446Z" fill="#222222"/>
</svg>
