<svg width="24" height="24" viewBox="0 0 24 24" fill="none" xmlns="http://www.w3.org/2000/svg">
<path fill-rule="evenodd" clip-rule="evenodd" d="M12 9.75C11.3096 9.75 10.75 10.3096 10.75 11C10.75 11.6904 11.3096 12.25 12 12.25C12.6904 12.25 13.25 11.6904 13.25 11C13.25 10.3096 12.6904 9.75 12 9.75ZM9.25 11C9.25 9.48122 10.4812 8.25 12 8.25C13.5188 8.25 14.75 9.48122 14.75 11C14.75 12.5188 13.5188 13.75 12 13.75C10.4812 13.75 9.25 12.5188 9.25 11Z" fill="#B88D4A"/>
<path fill-rule="evenodd" clip-rule="evenodd" d="M16.9695 6.03034C14.2248 3.28566 9.77485 3.28566 7.03018 6.03034C4.28551 8.77501 4.28551 13.225 7.03018 15.9697L11.9999 20.9393L16.9695 15.9697C19.7142 13.225 19.7142 8.77501 16.9695 6.03034ZM5.96952 4.96968C9.29998 1.63922 14.6997 1.63922 18.0302 4.96968C21.3606 8.30013 21.3606 13.6999 18.0302 17.0303L12.5302 22.5303C12.3895 22.671 12.1988 22.75 11.9999 22.75C11.8009 22.75 11.6102 22.671 11.4695 22.5303L5.96952 17.0303C2.63907 13.6999 2.63906 8.30013 5.96952 4.96968Z" fill="#B88D4A"/>
</svg>
