<svg width="21" height="21" viewBox="0 0 21 21" fill="none" xmlns="http://www.w3.org/2000/svg">
<path fill-rule="evenodd" clip-rule="evenodd" d="M17.439 3.46706C18.0338 4.11157 18.3029 4.9631 18.0571 5.89219C16.4891 11.8195 11.8199 16.4887 5.89258 18.0568C4.96349 18.3025 4.11196 18.0335 3.46745 17.4387C2.81063 16.8325 2.37539 15.8864 2.37539 14.8333V13.9167C2.37539 13.7757 2.50319 13.5867 2.75459 13.5609C3.66554 13.4672 4.54699 13.2725 5.38731 12.9883L6.70204 14.3031C6.96442 14.5654 7.36376 14.6338 7.69847 14.4736C10.6585 13.0571 13.0574 10.6581 14.474 7.69809C14.6342 7.36338 14.5658 6.96404 14.3034 6.70166L12.9887 5.38693C13.2729 4.5466 13.4675 3.66515 13.5612 2.7542C13.5871 2.5028 13.7761 2.375 13.9171 2.375H14.8337C15.8868 2.375 16.8329 2.81024 17.439 3.46706ZM18.7251 2.28021C17.7761 1.25194 16.358 0.625 14.8337 0.625H13.9171C12.7694 0.625 11.9264 1.54465 11.8204 2.57515C11.7228 3.52478 11.4971 4.43586 11.1611 5.29129C11.0339 5.61524 11.1107 5.9838 11.3568 6.2299L12.6169 7.48998C11.4459 9.65824 9.65862 11.4455 7.49037 12.6165L6.23028 11.3564C5.98418 11.1103 5.61562 11.0335 5.29167 11.1607C4.43624 11.4967 3.52516 11.7224 2.57554 11.82C1.54504 11.926 0.625389 12.769 0.625389 13.9167V14.8333C0.625389 16.3576 1.25233 17.7757 2.2806 18.7247C3.32117 19.685 4.77762 20.1619 6.34015 19.7486C12.8758 18.0196 18.02 12.8754 19.7489 6.33976C20.1623 4.77723 19.6854 3.32078 18.7251 2.28021Z" fill="white"/>
</svg>
