<svg width="24" height="24" viewBox="0 0 24 24" fill="none" xmlns="http://www.w3.org/2000/svg">
<path fill-rule="evenodd" clip-rule="evenodd" d="M19.9295 3.96236C20.6093 4.69895 20.9168 5.67213 20.6359 6.73394C18.8438 13.5081 13.5076 18.8442 6.73354 20.6363C5.67173 20.9172 4.69854 20.6097 3.96196 19.9299C3.21131 19.2372 2.71389 18.1559 2.71389 16.9524V15.9048C2.71389 15.7437 2.85995 15.5277 3.14726 15.4981C4.18835 15.391 5.19572 15.1686 6.15609 14.8438L7.65863 16.3464C7.9585 16.6462 8.41489 16.7243 8.79741 16.5413C12.1803 14.9224 14.922 12.1807 16.5409 8.79782C16.7239 8.4153 16.6458 7.95891 16.3459 7.65904L14.8434 6.1565C15.1682 5.19613 15.3906 4.18876 15.4977 3.14766C15.5273 2.86035 15.7433 2.71429 15.9044 2.71429H16.952C18.1555 2.71429 19.2368 3.21171 19.9295 3.96236ZM21.3993 2.60596C20.3147 1.43079 18.694 0.714294 16.952 0.714294H15.9044C14.5927 0.714294 13.6294 1.76532 13.5082 2.94304C13.3966 4.02833 13.1387 5.06956 12.7547 6.0472C12.6093 6.41743 12.6971 6.83864 12.9784 7.1199L14.4185 8.55999C13.0802 11.038 11.0376 13.0806 8.55958 14.4189L7.11948 12.9788C6.83822 12.6975 6.41702 12.6097 6.04679 12.7551C5.06915 13.1391 4.02792 13.397 2.94263 13.5086C1.76492 13.6298 0.713892 14.5931 0.713892 15.9048V16.9524C0.713892 18.6944 1.43039 20.3151 2.60556 21.3997C3.79478 22.4972 5.4593 23.0422 7.24504 22.5698C14.7143 20.5938 20.5934 14.7147 22.5694 7.24544C23.0418 5.4597 22.4968 3.79518 21.3993 2.60596Z" fill="#B88D4A"/>
</svg>
